<?xml version="1.0" encoding="UTF-8" standalone="no"?>
<svg
   xmlns:dc="http://purl.org/dc/elements/1.1/"
   xmlns:cc="http://creativecommons.org/ns#"
   xmlns:rdf="http://www.w3.org/1999/02/22-rdf-syntax-ns#"
   xmlns:svg="http://www.w3.org/2000/svg"
   xmlns="http://www.w3.org/2000/svg"
   viewBox="0 0 566.66669 146.66667"
   height="146.66667"
   width="566.66669"
   xml:space="preserve"
   id="svg2"
   version="1.1"><metadata
     id="metadata8"><rdf:RDF><cc:Work
         rdf:about=""><dc:format>image/svg+xml</dc:format><dc:type
           rdf:resource="http://purl.org/dc/dcmitype/StillImage" /></cc:Work></rdf:RDF></metadata><defs
     id="defs6"><clipPath
       id="clipPath18"
       clipPathUnits="userSpaceOnUse"><path
         id="path16"
         d="M 0,110 H 425 V 0 H 0 Z" /></clipPath></defs><g
     transform="matrix(1.3333333,0,0,-1.3333333,0,146.66667)"
     id="g10"><g
       id="g12"><g
         clip-path="url(#clipPath18)"
         id="g14"><g
           transform="translate(239.7207,57.2188)"
           id="g20"><path
             id="path22"
             style="fill:#ffffff;fill-opacity:1;fill-rule:nonzero;stroke:none"
             d="m 0,0 c -1.443,0 -2.618,-1.174 -2.618,-2.618 0,-1.444 1.175,-2.618 2.618,-2.618 h 6.78 c 2.397,0 4.347,1.949 4.347,4.347 0,2.397 -1.95,4.347 -4.347,4.347 C 4.665,3.458 2.869,1.941 2.509,-0.149 2.474,-0.355 2.334,-0.528 2.14,-0.605 1.946,-0.682 1.727,-0.654 1.559,-0.528 1.097,-0.183 0.558,0 0,0 M 6.78,-6.437 H 0 c -2.105,0 -3.818,1.713 -3.818,3.819 0,2.105 1.713,3.818 3.818,3.818 0.531,0 1.05,-0.112 1.531,-0.328 0.743,2.237 2.833,3.786 5.249,3.786 3.059,0 5.547,-2.489 5.547,-5.547 0,-3.059 -2.488,-5.548 -5.547,-5.548" /></g><g
           transform="translate(305.0293,55.7295)"
           id="g24"><path
             id="path26"
             style="fill:#ffffff;fill-opacity:1;fill-rule:nonzero;stroke:none"
             d="m 0,0 c -2.396,0 -4.347,-1.951 -4.347,-4.348 0,-2.397 1.951,-4.347 4.347,-4.347 h 6.78 c 1.444,0 2.618,1.174 2.618,2.618 0,1.444 -1.174,2.619 -2.618,2.619 -0.557,0 -1.096,-0.183 -1.558,-0.528 C 5.055,-4.112 4.834,-4.14 4.641,-4.063 4.446,-3.985 4.307,-3.813 4.271,-3.607 3.911,-1.518 2.115,0 0,0 M 6.78,-9.896 H 0 c -3.059,0 -5.547,2.49 -5.547,5.548 0,3.059 2.488,5.548 5.547,5.548 2.416,0 4.506,-1.549 5.249,-3.785 0.481,0.215 1,0.327 1.531,0.327 2.106,0 3.819,-1.714 3.819,-3.819 0,-2.106 -1.713,-3.819 -3.819,-3.819" /></g><g
           transform="translate(315.543,77.6152)"
           id="g28"><path
             id="path30"
             style="fill:#ffffff;fill-opacity:1;fill-rule:nonzero;stroke:none"
             d="m 0,0 c -2.397,0 -4.348,-1.95 -4.348,-4.347 0,-2.397 1.951,-4.347 4.348,-4.347 h 24.032 c 2.398,0 4.348,1.95 4.348,4.347 0,2.16 -1.625,4.003 -3.78,4.288 -0.324,0.042 -0.554,0.336 -0.518,0.661 0.036,0.319 0.058,0.644 0.058,0.973 0,4.811 -3.913,8.724 -8.723,8.724 -4.385,0 -8.102,-3.28 -8.647,-7.63 C 6.74,2.437 6.578,2.242 6.354,2.171 6.132,2.104 5.886,2.167 5.729,2.343 5.221,2.908 4.532,3.219 3.79,3.219 2.346,3.219 1.172,2.044 1.172,0.6 1.176,0.427 1.107,0.238 0.979,0.121 0.851,0.004 0.682,-0.077 0.508,-0.054 L 0.341,-0.032 C 0.229,-0.017 0.116,0 0,0 M 24.032,-9.894 H 0 c -3.059,0 -5.548,2.489 -5.548,5.547 0,3.059 2.489,5.547 5.548,5.547 h 0.031 c 0.307,1.848 1.875,3.219 3.759,3.219 0.7,0 1.384,-0.198 1.976,-0.562 1.041,4.423 5.018,7.642 9.651,7.642 5.472,0 9.923,-4.452 9.923,-9.924 0,-0.184 -0.006,-0.367 -0.017,-0.55 2.463,-0.588 4.257,-2.805 4.257,-5.372 0,-3.058 -2.489,-5.547 -5.548,-5.547" /></g><g
           transform="translate(378.2061,63.3154)"
           id="g32"><path
             id="path34"
             style="fill:#ffffff;fill-opacity:1;fill-rule:nonzero;stroke:none"
             d="m 0,0 c -1.444,0 -2.618,-1.174 -2.618,-2.618 0,-1.444 1.174,-2.618 2.618,-2.618 h 17.163 c 2.397,0 4.347,1.95 4.347,4.347 0,2.397 -1.95,4.347 -4.347,4.347 -0.351,0 -0.718,-0.056 -1.156,-0.177 -0.312,-0.09 -0.64,0.092 -0.735,0.405 C 14.384,6.624 11.724,8.597 8.653,8.597 4.84,8.597 1.737,5.495 1.737,1.681 1.737,1.285 1.775,0.882 1.854,0.449 1.893,0.232 1.81,0.011 1.637,-0.127 1.465,-0.264 1.23,-0.296 1.027,-0.209 0.7,-0.071 0.354,0 0,0 M 17.163,-6.437 H 0 c -2.105,0 -3.818,1.714 -3.818,3.819 0,2.105 1.713,3.818 3.818,3.818 0.187,0 0.372,-0.013 0.555,-0.04 -0.012,0.175 -0.018,0.348 -0.018,0.521 0,4.475 3.641,8.116 8.116,8.116 3.414,0 6.396,-2.079 7.586,-5.23 0.323,0.062 0.625,0.092 0.924,0.092 3.059,0 5.547,-2.489 5.547,-5.548 0,-3.058 -2.488,-5.548 -5.547,-5.548" /></g><g
           transform="translate(402.4541,26.2813)"
           id="g36"><path
             id="path38"
             style="fill:#ffffff;fill-opacity:1;fill-rule:nonzero;stroke:none"
             d="m 0,0 c -3.736,0 -6.776,-3.04 -6.776,-6.777 0,-3.737 3.04,-6.777 6.776,-6.777 3.737,0 6.777,3.04 6.777,6.777 C 6.777,-3.04 3.737,0 0,0 m 0,-14.754 c -4.398,0 -7.977,3.578 -7.977,7.977 0,4.398 3.579,7.977 7.977,7.977 4.399,0 7.978,-3.579 7.978,-7.977 0,-4.399 -3.579,-7.977 -7.978,-7.977" /></g><g
           transform="translate(402.4541,2.5625)"
           id="g40"><path
             id="path42"
             style="fill:#ffffff;fill-opacity:1;fill-rule:nonzero;stroke:none"
             d="m 0,0 c -0.331,0 -0.6,0.269 -0.6,0.6 v 16.341 c 0,0.332 0.269,0.601 0.6,0.601 0.332,0 0.601,-0.269 0.601,-0.601 V 0.6 C 0.601,0.269 0.332,0 0,0" /></g><g
           transform="translate(404.6025,2.5625)"
           id="g44"><path
             id="path46"
             style="fill:#ffffff;fill-opacity:1;fill-rule:nonzero;stroke:none"
             d="m 0,0 h -2.148 c -0.331,0 -0.6,0.269 -0.6,0.6 0,0.332 0.269,0.6 0.6,0.6 H 0 C 0.331,1.2 0.6,0.932 0.6,0.6 0.6,0.269 0.331,0 0,0" /></g><g
           transform="translate(382.9023,16.6182)"
           id="g48"><path
             id="path50"
             style="fill:#ffffff;fill-opacity:1;fill-rule:nonzero;stroke:none"
             d="m 0,0 c -4.104,0 -7.903,2.048 -10.165,5.478 -0.182,0.276 -0.106,0.648 0.171,0.831 0.276,0.182 0.648,0.106 0.831,-0.171 C -7.125,3.046 -3.699,1.2 0,1.2 c 6.047,0 10.966,4.919 10.966,10.966 0,6.047 -4.919,10.967 -10.966,10.967 -1.359,0 -2.686,-0.245 -3.941,-0.73 -0.308,-0.119 -0.657,0.034 -0.777,0.344 -0.119,0.31 0.035,0.657 0.345,0.776 1.394,0.538 2.865,0.81 4.373,0.81 6.708,0 12.166,-5.458 12.166,-12.167 C 12.166,5.458 6.708,0 0,0" /></g><g
           transform="translate(382.9023,2.5625)"
           id="g52"><path
             id="path54"
             style="fill:#ffffff;fill-opacity:1;fill-rule:nonzero;stroke:none"
             d="m 0,0 c -0.332,0 -0.601,0.269 -0.601,0.6 v 25.622 c 0,0.332 0.269,0.6 0.601,0.6 0.331,0 0.6,-0.268 0.6,-0.6 V 0.6 C 0.6,0.269 0.331,0 0,0" /></g><g
           transform="translate(382.9023,22.4746)"
           id="g56"><path
             id="path58"
             style="fill:#ffffff;fill-opacity:1;fill-rule:nonzero;stroke:none"
             d="m 0,0 c -0.153,0 -0.308,0.059 -0.425,0.176 l -4.612,4.611 c -0.234,0.234 -0.234,0.614 0,0.849 0.234,0.234 0.614,0.234 0.849,0 L 0.424,1.024 C 0.658,0.79 0.658,0.41 0.424,0.176 0.307,0.059 0.153,0 0,0" /></g><g
           transform="translate(249.0225,2.5625)"
           id="g60"><path
             id="path62"
             style="fill:#ffffff;fill-opacity:1;fill-rule:nonzero;stroke:none"
             d="m 0,0 c -0.332,0 -0.601,0.269 -0.601,0.6 v 15.841 c 0,0.331 0.269,0.6 0.601,0.6 0.331,0 0.6,-0.269 0.6,-0.6 V 0.6 C 0.6,0.269 0.331,0 0,0" /></g><g
           transform="translate(249.0225,9.3262)"
           id="g64"><path
             id="path66"
             style="fill:#ffffff;fill-opacity:1;fill-rule:nonzero;stroke:none"
             d="m 0,0 c -0.153,0 -0.308,0.059 -0.425,0.176 l -5.101,5.101 c -0.235,0.235 -0.235,0.615 0,0.849 0.234,0.234 0.614,0.234 0.848,0 L 0.424,1.024 C 0.658,0.79 0.658,0.41 0.424,0.176 0.307,0.059 0.153,0 0,0" /></g><g
           transform="translate(249.0225,9.3262)"
           id="g68"><path
             id="path70"
             style="fill:#ffffff;fill-opacity:1;fill-rule:nonzero;stroke:none"
             d="m 0,0 c -0.153,0 -0.308,0.059 -0.425,0.176 -0.234,0.234 -0.234,0.614 0,0.848 l 5.102,5.102 c 0.234,0.234 0.614,0.234 0.848,0 0.235,-0.234 0.235,-0.614 0,-0.849 L 0.424,0.176 C 0.307,0.059 0.153,0 0,0" /></g><g
           transform="translate(254.0684,2.5625)"
           id="g72"><path
             id="path74"
             style="fill:#ffffff;fill-opacity:1;fill-rule:nonzero;stroke:none"
             d="m 0,0 h -10.093 c -0.332,0 -0.6,0.269 -0.6,0.6 0,0.332 0.268,0.6 0.6,0.6 H 0 C 0.332,1.2 0.601,0.932 0.601,0.6 0.601,0.269 0.332,0 0,0" /></g><g
           transform="translate(348.0342,49.9531)"
           id="g76"><path
             id="path78"
             style="fill:#ffffff;fill-opacity:1;fill-rule:nonzero;stroke:none"
             d="m 0,0 c -4.339,0 -8.154,-2.771 -9.495,-6.896 -1.341,-4.126 0.118,-8.613 3.631,-11.163 0.21,-0.153 0.298,-0.423 0.218,-0.67 -1.343,-4.127 0.113,-8.614 3.624,-11.165 3.51,-2.55 8.227,-2.549 11.737,0.003 0.211,0.153 0.495,0.153 0.706,0 3.51,-2.552 8.226,-2.553 11.738,-0.003 3.51,2.55 4.967,7.037 3.624,11.165 -0.081,0.247 0.007,0.517 0.218,0.67 3.512,2.55 4.971,7.037 3.63,11.163 C 28.291,-2.771 24.475,0 20.137,0 H 20.133 C 19.873,0 19.643,0.168 19.562,0.415 18.223,4.544 14.407,7.317 10.068,7.317 5.729,7.317 1.914,4.544 0.574,0.415 0.493,0.168 0.263,0 0.003,0 Z m 16.292,-33.007 c -2.168,0 -4.337,0.633 -6.224,1.9 -3.891,-2.611 -8.981,-2.53 -12.796,0.243 -3.816,2.772 -5.465,7.587 -4.185,12.093 -3.685,2.895 -5.181,7.76 -3.724,12.246 1.458,4.485 5.529,7.542 10.21,7.717 1.614,4.399 5.779,7.325 10.495,7.325 4.716,0 8.881,-2.926 10.495,-7.325 4.682,-0.175 8.751,-3.232 10.209,-7.717 1.457,-4.486 -0.038,-9.351 -3.723,-12.246 1.28,-4.506 -0.368,-9.321 -4.185,-12.093 -1.966,-1.428 -4.268,-2.143 -6.572,-2.143" /></g><g
           transform="translate(358.1025,2.5625)"
           id="g80"><path
             id="path82"
             style="fill:#ffffff;fill-opacity:1;fill-rule:nonzero;stroke:none"
             d="m 0,0 c -0.332,0 -0.601,0.269 -0.601,0.6 v 34.549 c 0,0.332 0.269,0.601 0.601,0.601 0.331,0 0.6,-0.269 0.6,-0.601 V 0.6 C 0.6,0.269 0.331,0 0,0" /></g><g
           transform="translate(362.2187,2.5625)"
           id="g84"><path
             id="path86"
             style="fill:#ffffff;fill-opacity:1;fill-rule:nonzero;stroke:none"
             d="m 0,0 h -8.232 c -0.332,0 -0.601,0.269 -0.601,0.6 0,0.332 0.269,0.6 0.601,0.6 H 0 C 0.331,1.2 0.6,0.932 0.6,0.6 0.6,0.269 0.331,0 0,0" /></g><g
           transform="translate(358.1025,26.6729)"
           id="g88"><path
             id="path90"
             style="fill:#ffffff;fill-opacity:1;fill-rule:nonzero;stroke:none"
             d="M 0,0 C -0.153,0 -0.308,0.059 -0.425,0.176 L -6.069,5.82 c -0.235,0.235 -0.235,0.615 0,0.849 0.234,0.234 0.614,0.234 0.848,0 L 0.424,1.024 C 0.658,0.79 0.658,0.41 0.424,0.176 0.307,0.059 0.153,0 0,0" /></g><g
           transform="translate(358.1025,26.6729)"
           id="g92"><path
             id="path94"
             style="fill:#ffffff;fill-opacity:1;fill-rule:nonzero;stroke:none"
             d="m 0,0 c -0.154,0 -0.308,0.059 -0.425,0.176 -0.234,0.234 -0.234,0.614 0,0.848 l 5.646,5.645 c 0.235,0.234 0.615,0.233 0.848,0 0.235,-0.234 0.235,-0.614 0,-0.849 L 0.424,0.176 C 0.307,0.059 0.153,0 0,0" /></g><g
           transform="translate(270.3604,2.5625)"
           id="g96"><path
             id="path98"
             style="fill:#ffffff;fill-opacity:1;fill-rule:nonzero;stroke:none"
             d="m 0,0 h -8.232 c -0.331,0 -0.6,0.269 -0.6,0.6 0,0.332 0.269,0.6 0.6,0.6 H 0 C 0.332,1.2 0.601,0.932 0.601,0.6 0.601,0.269 0.332,0 0,0" /></g><g
           transform="translate(266.2441,2.5625)"
           id="g100"><path
             id="path102"
             style="fill:#ffffff;fill-opacity:1;fill-rule:nonzero;stroke:none"
             d="m 0,0 c -0.331,0 -0.6,0.269 -0.6,0.6 v 37.463 c 0,0.331 0.269,0.599 0.6,0.599 0.332,0 0.601,-0.268 0.601,-0.599 V 0.6 C 0.601,0.269 0.332,0 0,0" /></g><g
           transform="translate(266.2441,56.1489)"
           id="g104"><path
             id="path106"
             style="fill:#ffffff;fill-opacity:1;fill-rule:nonzero;stroke:none"
             d="m 0,0 c -2.303,-6.23 -10.895,-29.831 -10.895,-35.199 0,-6.008 4.887,-10.894 10.895,-10.894 6.008,0 10.896,4.886 10.896,10.894 C 10.896,-29.831 2.304,-6.23 0,0 m 0,-47.293 c -6.669,0 -12.095,5.425 -12.095,12.094 0,6.384 11.063,35.879 11.533,37.132 0.176,0.468 0.948,0.468 1.124,0 C 1.033,0.68 12.096,-28.815 12.096,-35.199 12.096,-41.868 6.67,-47.293 0,-47.293" /></g><g
           transform="translate(266.0908,29.7627)"
           id="g108"><path
             id="path110"
             style="fill:#ffffff;fill-opacity:1;fill-rule:nonzero;stroke:none"
             d="m 0,0 c -0.154,0 -0.308,0.059 -0.425,0.176 l -2.407,2.407 c -0.234,0.234 -0.234,0.614 0,0.849 0.235,0.234 0.615,0.233 0.849,0 L 0.424,1.024 C 0.658,0.79 0.658,0.41 0.424,0.176 0.307,0.059 0.153,0 0,0" /></g><g
           transform="translate(266.0908,26.1514)"
           id="g112"><path
             id="path114"
             style="fill:#ffffff;fill-opacity:1;fill-rule:nonzero;stroke:none"
             d="m 0,0 c -0.154,0 -0.308,0.059 -0.425,0.176 l -2.407,2.407 c -0.234,0.234 -0.234,0.614 0,0.849 0.235,0.234 0.615,0.234 0.849,0 L 0.424,1.024 C 0.658,0.79 0.658,0.41 0.424,0.176 0.307,0.059 0.153,0 0,0" /></g><g
           transform="translate(266.3984,20.1709)"
           id="g116"><path
             id="path118"
             style="fill:#ffffff;fill-opacity:1;fill-rule:nonzero;stroke:none"
             d="m 0,0 c -0.153,0 -0.308,0.059 -0.425,0.176 -0.234,0.234 -0.234,0.614 0,0.848 l 2.408,2.408 c 0.235,0.234 0.615,0.234 0.849,0 0.234,-0.235 0.234,-0.615 0,-0.849 L 0.424,0.176 C 0.307,0.059 0.153,0 0,0" /></g><g
           transform="translate(266.3984,16.5596)"
           id="g120"><path
             id="path122"
             style="fill:#ffffff;fill-opacity:1;fill-rule:nonzero;stroke:none"
             d="m 0,0 c -0.153,0 -0.308,0.059 -0.425,0.176 -0.234,0.234 -0.234,0.614 0,0.848 l 2.408,2.408 c 0.235,0.234 0.615,0.234 0.849,0 0.234,-0.235 0.234,-0.615 0,-0.849 L 0.424,0.176 C 0.307,0.059 0.153,0 0,0" /></g><path
           id="path124"
           style="fill:#ffffff;fill-opacity:1;fill-rule:nonzero;stroke:none"
           d="m 297.193,11.305 h 39.05 v 1.55 h -39.05 z m 39.65,-1.201 h -40.25 c -0.331,0 -0.6,0.269 -0.6,0.6 v 2.75 c 0,0.332 0.269,0.601 0.6,0.601 h 40.25 c 0.332,0 0.6,-0.269 0.6,-0.601 v -2.75 c 0,-0.331 -0.268,-0.6 -0.6,-0.6" /><g
           transform="translate(297.1934,17.5127)"
           id="g126"><path
             id="path128"
             style="fill:#ffffff;fill-opacity:1;fill-rule:nonzero;stroke:none"
             d="m 0,0 h 39.05 v 3.171 c 0,1.61 -1.311,2.921 -2.921,2.921 H 2.92 C 1.31,6.092 0,4.781 0,3.171 Z m 39.649,-1.2 h -40.25 c -0.331,0 -0.599,0.268 -0.599,0.599 v 3.772 c 0,2.272 1.848,4.121 4.12,4.121 h 33.209 c 2.272,0 4.121,-1.849 4.121,-4.121 v -3.772 c 0,-0.331 -0.269,-0.599 -0.601,-0.599" /></g><g
           transform="translate(296.5928,2.5625)"
           id="g130"><path
             id="path132"
             style="fill:#ffffff;fill-opacity:1;fill-rule:nonzero;stroke:none"
             d="m 0,0 c -0.331,0 -0.6,0.269 -0.6,0.6 v 13.75 c 0,0.332 0.269,0.6 0.6,0.6 0.332,0 0.601,-0.268 0.601,-0.6 V 0.6 C 0.601,0.269 0.332,0 0,0" /></g><g
           transform="translate(336.8428,2.5625)"
           id="g134"><path
             id="path136"
             style="fill:#ffffff;fill-opacity:1;fill-rule:nonzero;stroke:none"
             d="m 0,0 c -0.331,0 -0.6,0.269 -0.6,0.6 v 13.75 c 0,0.332 0.269,0.6 0.6,0.6 0.332,0 0.601,-0.268 0.601,-0.6 V 0.6 C 0.601,0.269 0.332,0 0,0" /></g><g
           transform="translate(296.5928,16.3125)"
           id="g138"><path
             id="path140"
             style="fill:#ffffff;fill-opacity:1;fill-rule:nonzero;stroke:none"
             d="m 0,0 c -0.331,0 -0.6,0.269 -0.6,0.6 0,0.956 -0.777,1.733 -1.733,1.733 -0.956,0 -1.733,-0.777 -1.733,-1.733 0,-0.331 -0.269,-0.6 -0.601,-0.6 -0.331,0 -0.6,0.269 -0.6,0.6 0,1.618 1.316,2.933 2.934,2.933 1.617,0 2.934,-1.315 2.934,-2.933 C 0.601,0.269 0.332,0 0,0" /></g><g
           transform="translate(341.5098,16.3125)"
           id="g142"><path
             id="path144"
             style="fill:#ffffff;fill-opacity:1;fill-rule:nonzero;stroke:none"
             d="m 0,0 c -0.332,0 -0.601,0.269 -0.601,0.6 0,0.956 -0.777,1.733 -1.733,1.733 -0.955,0 -1.732,-0.777 -1.732,-1.733 0,-0.331 -0.269,-0.6 -0.601,-0.6 -0.331,0 -0.6,0.269 -0.6,0.6 0,1.618 1.316,2.933 2.933,2.933 C -0.716,3.533 0.6,2.218 0.6,0.6 0.6,0.269 0.331,0 0,0" /></g><g
           transform="translate(296.5928,2.5625)"
           id="g146"><path
             id="path148"
             style="fill:#ffffff;fill-opacity:1;fill-rule:nonzero;stroke:none"
             d="m 0,0 h -2.333 c -0.332,0 -0.601,0.269 -0.601,0.6 0,0.332 0.269,0.6 0.601,0.6 H 0 C 0.332,1.2 0.601,0.932 0.601,0.6 0.601,0.269 0.332,0 0,0" /></g><g
           transform="translate(339.1758,2.5625)"
           id="g150"><path
             id="path152"
             style="fill:#ffffff;fill-opacity:1;fill-rule:nonzero;stroke:none"
             d="m 0,0 h -2.333 c -0.331,0 -0.6,0.269 -0.6,0.6 0,0.332 0.269,0.6 0.6,0.6 H 0 C 0.332,1.2 0.601,0.932 0.601,0.6 0.601,0.269 0.332,0 0,0" /></g><path
           id="path154"
           style="fill:#ffffff;fill-opacity:1;fill-rule:nonzero;stroke:none"
           d="m 282.433,3.763 h 3.8 V 23.73 h -3.8 z m 4.4,-1.2 h -5 c -0.332,0 -0.601,0.268 -0.601,0.599 v 21.167 c 0,0.332 0.269,0.601 0.601,0.601 h 5 c 0.331,0 0.6,-0.269 0.6,-0.601 V 3.162 c 0,-0.331 -0.269,-0.599 -0.6,-0.599" /><g
           transform="translate(289.833,2.5625)"
           id="g156"><path
             id="path158"
             style="fill:#ffffff;fill-opacity:1;fill-rule:nonzero;stroke:none"
             d="m 0,0 h -11 c -0.332,0 -0.601,0.269 -0.601,0.6 0,0.332 0.269,0.6 0.601,0.6 H 0 C 0.331,1.2 0.6,0.932 0.6,0.6 0.6,0.269 0.331,0 0,0" /></g><g
           transform="translate(284.333,23.7295)"
           id="g160"><path
             id="path162"
             style="fill:#ffffff;fill-opacity:1;fill-rule:nonzero;stroke:none"
             d="m 0,0 c -0.332,0 -0.601,0.269 -0.601,0.6 v 30 c 0,0.332 0.269,0.6 0.601,0.6 0.331,0 0.6,-0.268 0.6,-0.6 V 0.6 C 0.6,0.269 0.331,0 0,0" /></g><g
           transform="translate(284.333,64.3955)"
           id="g164"><path
             id="path166"
             style="fill:#ffffff;fill-opacity:1;fill-rule:nonzero;stroke:none"
             d="m 0,0 c -2.059,0 -3.733,-1.674 -3.733,-3.733 0,-2.059 1.674,-3.733 3.733,-3.733 2.059,0 3.733,1.674 3.733,3.733 C 3.733,-1.674 2.059,0 0,0 m 0,-8.666 c -2.721,0 -4.934,2.213 -4.934,4.933 0,2.72 2.213,4.934 4.934,4.934 2.72,0 4.934,-2.214 4.934,-4.934 0,-2.72 -2.214,-4.933 -4.934,-4.933" /></g><g
           transform="translate(286.8428,53.7295)"
           id="g168"><path
             id="path170"
             style="fill:#ffffff;fill-opacity:1;fill-rule:nonzero;stroke:none"
             d="M 0,0 H -5.021 C -5.352,0 -5.62,0.269 -5.62,0.6 v 2.803 c 0,0.332 0.268,0.6 0.599,0.6 0.333,0 0.601,-0.268 0.601,-0.6 V 1.2 h 3.82 v 2.203 c 0,0.332 0.269,0.6 0.6,0.6 0.332,0 0.601,-0.268 0.601,-0.6 V 0.6 C 0.601,0.269 0.332,0 0,0" /></g><g
           transform="translate(187.7363,3.2744)"
           id="g172"><path
             id="path174"
             style="fill:#ffffff;fill-opacity:1;fill-rule:nonzero;stroke:none"
             d="m 0,0 c 0.332,0 0.6,0.269 0.6,0.6 v 54.994 c 0,0.331 -0.268,0.6 -0.6,0.6 -0.331,0 -0.6,-0.269 -0.6,-0.6 V 0.6 C -0.6,0.269 -0.331,0 0,0" /></g><g
           transform="translate(174.0703,69.4609)"
           id="g176"><path
             id="path178"
             style="fill:#ffffff;fill-opacity:1;fill-rule:nonzero;stroke:none"
             d="m 0,0 c -0.035,-0.206 -0.175,-0.379 -0.369,-0.456 -0.193,-0.076 -0.413,-0.047 -0.581,0.077 -0.461,0.346 -1,0.528 -1.557,0.528 -1.445,0 -2.62,-1.174 -2.62,-2.618 0,-1.444 1.175,-2.618 2.62,-2.618 h 6.78 c 2.397,0 4.347,1.95 4.347,4.347 0,2.397 -1.95,4.347 -4.347,4.347 C 2.158,3.607 0.361,2.09 0,0 m -6.326,-2.469 c 0,2.106 1.713,3.819 3.819,3.819 0.53,0 1.049,-0.112 1.53,-0.328 0.744,2.236 2.834,3.786 5.25,3.786 3.059,0 5.546,-2.489 5.546,-5.548 0,-3.059 -2.487,-5.548 -5.546,-5.548 h -6.78 c -2.106,0 -3.819,1.713 -3.819,3.819" /></g><g
           transform="translate(203.7275,37.6729)"
           id="g180"><path
             id="path182"
             style="fill:#ffffff;fill-opacity:1;fill-rule:nonzero;stroke:none"
             d="m 0,0 c -0.167,-0.124 -0.385,-0.152 -0.581,-0.076 -0.193,0.078 -0.333,0.25 -0.368,0.456 -0.36,2.089 -2.157,3.606 -4.272,3.606 -2.397,0 -4.347,-1.95 -4.347,-4.347 0,-2.398 1.95,-4.348 4.347,-4.348 H 1.56 c 1.443,0 2.618,1.175 2.618,2.619 0,1.444 -1.175,2.618 -2.618,2.618 C 1.002,0.528 0.463,0.346 0,0 m -10.768,-0.361 c 0,3.058 2.489,5.547 5.547,5.547 2.416,0 4.507,-1.549 5.249,-3.786 0.482,0.216 1,0.328 1.532,0.328 2.106,0 3.817,-1.712 3.817,-3.818 0,-2.105 -1.711,-3.818 -3.817,-3.818 h -6.781 c -3.058,0 -5.547,2.488 -5.547,5.547" /></g><g
           transform="translate(216.373,64.2075)"
           id="g184"><path
             id="path186"
             style="fill:#ffffff;fill-opacity:1;fill-rule:nonzero;stroke:none"
             d="m 0,0 -0.163,-0.021 c -0.183,-0.021 -0.349,0.051 -0.478,0.171 -0.13,0.121 -0.196,0.307 -0.187,0.483 0,1.444 -1.175,2.618 -2.618,2.618 -0.742,0 -1.43,-0.311 -1.938,-0.876 -0.158,-0.174 -0.399,-0.239 -0.626,-0.171 -0.224,0.07 -0.387,0.265 -0.416,0.498 -0.545,4.349 -4.262,7.629 -8.647,7.629 -4.81,0 -8.723,-3.913 -8.723,-8.723 0,-0.33 0.022,-0.654 0.058,-0.974 0.036,-0.324 -0.195,-0.618 -0.519,-0.661 -2.154,-0.284 -3.78,-2.128 -3.78,-4.287 0,-2.397 1.951,-4.348 4.349,-4.348 H 0.344 c 2.397,0 4.347,1.951 4.347,4.348 0,2.397 -1.95,4.347 -4.347,4.347 C 0.226,0.033 0.113,0.016 0,0 m -29.236,-4.314 c 0,2.567 1.793,4.783 4.257,5.372 -0.011,0.182 -0.017,0.365 -0.017,0.55 0,5.471 4.451,9.923 9.923,9.923 4.633,0 8.61,-3.219 9.652,-7.641 0.591,0.363 1.275,0.562 1.975,0.562 1.879,0 3.446,-1.366 3.756,-3.219 h 0.034 c 3.058,0 5.547,-2.488 5.547,-5.547 0,-3.059 -2.489,-5.548 -5.547,-5.548 h -24.032 c -3.06,0 -5.548,2.489 -5.548,5.548" /></g><g
           transform="translate(183.4927,43.6172)"
           id="g188"><path
             id="path190"
             style="fill:#ffffff;fill-opacity:1;fill-rule:nonzero;stroke:none"
             d="m 0,0 c -0.204,-0.087 -0.437,-0.056 -0.61,0.082 -0.173,0.138 -0.256,0.358 -0.218,0.575 0.078,0.434 0.117,0.837 0.117,1.234 0,3.814 -3.104,6.917 -6.917,6.917 -3.022,0 -5.745,-2.02 -6.618,-4.912 -0.094,-0.312 -0.416,-0.491 -0.735,-0.405 -0.435,0.121 -0.803,0.178 -1.156,0.178 -2.397,0 -4.348,-1.95 -4.348,-4.348 0,-2.397 1.951,-4.347 4.348,-4.347 H 1.026 c 1.443,0 2.618,1.174 2.618,2.618 0,1.444 -1.175,2.619 -2.618,2.619 C 0.671,0.211 0.326,0.14 0,0 m -21.684,-0.679 c 0,3.059 2.489,5.548 5.547,5.548 0.3,0 0.601,-0.029 0.924,-0.091 1.19,3.151 4.172,5.229 7.585,5.229 4.475,0 8.116,-3.641 8.116,-8.116 0,-0.173 -0.006,-0.346 -0.017,-0.521 0.182,0.027 0.367,0.04 0.555,0.04 2.105,0 3.817,-1.713 3.817,-3.818 0,-2.106 -1.712,-3.818 -3.817,-3.818 h -17.163 c -3.058,0 -5.547,2.489 -5.547,5.547" /></g><g
           transform="translate(187.7363,23.9268)"
           id="g192"><path
             id="path194"
             style="fill:#ffffff;fill-opacity:1;fill-rule:nonzero;stroke:none"
             d="m 0,0 h 8.194 c 3.377,0 6.125,2.747 6.125,6.124 v 2.314 c 0,0.331 -0.269,0.599 -0.6,0.599 -0.331,0 -0.599,-0.268 -0.599,-0.599 V 6.124 C 13.12,3.409 10.909,1.199 8.194,1.199 H 0 C -0.331,1.199 -0.6,0.931 -0.6,0.6 -0.6,0.269 -0.331,0 0,0" /></g><g
           transform="translate(179.5435,29.5537)"
           id="g196"><path
             id="path198"
             style="fill:#ffffff;fill-opacity:1;fill-rule:nonzero;stroke:none"
             d="m 0,0 h 8.193 c 0.331,0 0.599,0.269 0.599,0.6 0,0.331 -0.268,0.599 -0.599,0.599 L 0,1.199 c -2.716,0 -4.925,2.21 -4.925,4.925 v 2.314 c 0,0.331 -0.269,0.599 -0.6,0.599 -0.33,0 -0.6,-0.268 -0.6,-0.599 V 6.124 C -6.125,2.747 -3.377,0 0,0" /></g><g
           transform="translate(187.7363,46.5078)"
           id="g200"><path
             id="path202"
             style="fill:#ffffff;fill-opacity:1;fill-rule:nonzero;stroke:none"
             d="m 0,0 h 11.229 c 3.378,0 6.125,2.747 6.125,6.125 v 2.313 c 0,0.332 -0.269,0.6 -0.6,0.6 -0.331,0 -0.6,-0.268 -0.6,-0.6 V 6.125 c 0,-2.716 -2.21,-4.926 -4.925,-4.926 L 0,1.199 C -0.331,1.199 -0.6,0.931 -0.6,0.6 -0.6,0.269 -0.331,0 0,0" /></g><g
           transform="translate(180.438,55.3359)"
           id="g204"><path
             id="path206"
             style="fill:#ffffff;fill-opacity:1;fill-rule:nonzero;stroke:none"
             d="m 0,0 h 7.298 c 0.332,0 0.6,0.269 0.6,0.6 0,0.332 -0.268,0.6 -0.6,0.6 H 0 c -2.715,0 -4.925,2.209 -4.925,4.925 v 2.313 c 0,0.331 -0.269,0.6 -0.599,0.6 -0.332,0 -0.6,-0.269 -0.6,-0.6 V 6.125 C -6.124,2.747 -3.377,0 0,0" /></g><g
           transform="translate(62.8462,3.2744)"
           id="g208"><path
             id="path210"
             style="fill:#ffffff;fill-opacity:1;fill-rule:nonzero;stroke:none"
             d="M 0,0 C 0.331,0 0.599,0.269 0.599,0.6 V 7.883 C 0.599,8.214 0.331,8.482 0,8.482 -0.332,8.482 -0.6,8.214 -0.6,7.883 V 0.6 C -0.6,0.269 -0.332,0 0,0" /></g><g
           transform="translate(43.0557,3.2744)"
           id="g212"><path
             id="path214"
             style="fill:#ffffff;fill-opacity:1;fill-rule:nonzero;stroke:none"
             d="m 0,0 c 0.331,0 0.6,0.269 0.6,0.6 v 20.37 c 0,0.331 -0.269,0.599 -0.6,0.599 -0.331,0 -0.6,-0.268 -0.6,-0.599 V 0.6 C -0.6,0.269 -0.331,0 0,0" /></g><g
           transform="translate(62.8462,3.2744)"
           id="g216"><path
             id="path218"
             style="fill:#ffffff;fill-opacity:1;fill-rule:nonzero;stroke:none"
             d="M 0,0 H 5.221 C 5.551,0 5.82,0.269 5.82,0.6 5.82,0.931 5.551,1.199 5.221,1.199 H 0 C -0.332,1.199 -0.6,0.931 -0.6,0.6 -0.6,0.269 -0.332,0 0,0" /></g><g
           transform="translate(37.835,3.2744)"
           id="g220"><path
             id="path222"
             style="fill:#ffffff;fill-opacity:1;fill-rule:nonzero;stroke:none"
             d="m 0,0 h 5.221 c 0.331,0 0.6,0.269 0.6,0.6 0,0.331 -0.269,0.599 -0.6,0.599 L 0,1.199 C -0.331,1.199 -0.6,0.931 -0.6,0.6 -0.6,0.269 -0.331,0 0,0" /></g><g
           transform="translate(68.3398,12.9932)"
           id="g224"><path
             id="path226"
             style="fill:#ffffff;fill-opacity:1;fill-rule:nonzero;stroke:none"
             d="m 0,0 c 0.21,-0.017 0.396,-0.141 0.491,-0.329 0.446,-0.886 1.33,-1.437 2.307,-1.437 1.43,0 2.594,1.163 2.594,2.593 0,1.43 -1.164,2.594 -2.594,2.594 -0.7,0 -1.357,-0.278 -1.85,-0.782 C 0.8,2.488 0.585,2.426 0.38,2.474 0.174,2.522 0.01,2.676 -0.054,2.877 c -0.473,1.5 -1.835,2.508 -3.391,2.508 -1.972,0 -3.576,-1.605 -3.576,-3.575 0,-1.971 1.604,-3.576 3.576,-3.576 1.15,0 2.238,0.567 2.911,1.515 0.113,0.159 0.296,0.252 0.489,0.252 0.015,0 0.031,0 0.045,-0.001 m -8.221,1.81 c 0,2.632 2.142,4.774 4.776,4.774 1.794,0 3.397,-0.999 4.209,-2.557 0.602,0.387 1.302,0.593 2.034,0.593 2.092,0 3.793,-1.701 3.793,-3.793 0,-2.091 -1.701,-3.792 -3.793,-3.792 -1.141,0 -2.195,0.51 -2.906,1.371 -0.886,-0.87 -2.083,-1.371 -3.337,-1.371 -2.634,0 -4.776,2.142 -4.776,4.775" /></g><g
           transform="translate(72.7915,37.9033)"
           id="g228"><path
             id="path230"
             style="fill:#ffffff;fill-opacity:1;fill-rule:nonzero;stroke:none"
             d="m 0,0 c 0.331,0 0.599,0.269 0.599,0.6 0,2.091 -1.701,3.793 -3.793,3.793 -0.732,0 -1.431,-0.206 -2.034,-0.593 -0.812,1.557 -2.415,2.556 -4.209,2.556 -2.633,0 -4.775,-2.141 -4.775,-4.774 0,-0.331 0.268,-0.6 0.599,-0.6 0.331,0 0.6,0.269 0.6,0.6 0,1.971 1.604,3.575 3.576,3.575 1.555,0 2.918,-1.008 3.392,-2.508 0.064,-0.201 0.229,-0.354 0.434,-0.403 0.204,-0.049 0.421,0.014 0.567,0.165 0.493,0.504 1.15,0.782 1.85,0.782 C -1.764,3.193 -0.6,2.029 -0.6,0.6 -0.6,0.269 -0.332,0 0,0" /></g><g
           transform="translate(35.2251,14.8467)"
           id="g232"><path
             id="path234"
             style="fill:#ffffff;fill-opacity:1;fill-rule:nonzero;stroke:none"
             d="m 0,0 c 0.487,-0.463 1.119,-0.718 1.78,-0.718 1.43,0 2.594,1.163 2.594,2.593 0,1.43 -1.164,2.593 -2.594,2.593 C 1.119,4.468 0.487,4.213 0,3.75 -0.232,3.531 -0.596,3.53 -0.827,3.751 c -0.485,0.462 -1.117,0.717 -1.779,0.717 -1.43,0 -2.593,-1.163 -2.593,-2.593 0,-1.43 1.163,-2.593 2.593,-2.593 0.662,0 1.294,0.255 1.779,0.717 0.116,0.11 0.265,0.165 0.413,0.165 C -0.265,0.164 -0.116,0.109 0,0 m -6.398,1.875 c 0,2.091 1.7,3.792 3.792,3.792 0.791,0 1.553,-0.247 2.192,-0.705 0.641,0.458 1.403,0.705 2.194,0.705 2.092,0 3.793,-1.701 3.793,-3.792 0,-2.091 -1.701,-3.792 -3.793,-3.792 -0.791,0 -1.553,0.247 -2.194,0.705 -0.639,-0.458 -1.401,-0.705 -2.192,-0.705 -2.092,0 -3.792,1.701 -3.792,3.792" /></g><g
           transform="translate(38.8804,8.0762)"
           id="g236"><path
             id="path238"
             style="fill:#ffffff;fill-opacity:1;fill-rule:nonzero;stroke:none"
             d="m 0,0 h 4.175 c 0.331,0 0.6,0.269 0.6,0.6 0,0.331 -0.269,0.599 -0.6,0.599 L 0,1.199 c -1.912,0 -3.469,1.556 -3.469,3.468 v 1.668 c 0,0.331 -0.268,0.6 -0.6,0.6 -0.33,0 -0.599,-0.269 -0.599,-0.6 V 4.667 C -4.668,2.094 -2.575,0 0,0" /></g><g
           transform="translate(57.7192,3.2744)"
           id="g240"><path
             id="path242"
             style="fill:#ffffff;fill-opacity:1;fill-rule:nonzero;stroke:none"
             d="M 0,0 C 0.331,0 0.599,0.269 0.599,0.6 V 7.883 C 0.599,8.214 0.331,8.482 0,8.482 -0.331,8.482 -0.6,8.214 -0.6,7.883 V 0.6 C -0.6,0.269 -0.331,0 0,0" /></g><g
           transform="translate(57.7192,13.8115)"
           id="g244"><path
             id="path246"
             style="fill:#ffffff;fill-opacity:1;fill-rule:nonzero;stroke:none"
             d="m 0,0 c 0.331,0 0.599,0.269 0.599,0.6 v 1 C 0.599,1.931 0.331,2.199 0,2.199 -0.331,2.199 -0.6,1.931 -0.6,1.6 v -1 C -0.6,0.269 -0.331,0 0,0" /></g><g
           transform="translate(48.1826,3.2744)"
           id="g248"><path
             id="path250"
             style="fill:#ffffff;fill-opacity:1;fill-rule:nonzero;stroke:none"
             d="m 0,0 c 0.332,0 0.6,0.269 0.6,0.6 v 13.104 c 0,0.331 -0.268,0.6 -0.6,0.6 -0.331,0 -0.599,-0.269 -0.599,-0.6 V 0.6 C -0.599,0.269 -0.331,0 0,0" /></g><g
           transform="translate(52.9517,3.2744)"
           id="g252"><path
             id="path254"
             style="fill:#ffffff;fill-opacity:1;fill-rule:nonzero;stroke:none"
             d="m 0,0 c 0.331,0 0.6,0.269 0.6,0.6 v 4.801 c 0,0.331 -0.269,0.6 -0.6,0.6 -0.332,0 -0.6,-0.269 -0.6,-0.6 V 0.6 C -0.6,0.269 -0.332,0 0,0" /></g><g
           transform="translate(46.6738,45.8379)"
           id="g256"><path
             id="path258"
             style="fill:#ffffff;fill-opacity:1;fill-rule:nonzero;stroke:none"
             d="m 0,0 c 0.332,0 0.6,0.269 0.6,0.6 0,2.091 -1.701,3.794 -3.792,3.794 -0.97,0 -1.896,-0.373 -2.606,-1.048 -0.241,-0.228 -0.25,-0.608 -0.023,-0.848 0.229,-0.241 0.608,-0.25 0.849,-0.022 0.487,0.462 1.118,0.717 1.78,0.717 C -1.763,3.193 -0.6,2.03 -0.6,0.6 -0.6,0.269 -0.331,0 0,0" /></g><g
           transform="translate(75.8105,26.2363)"
           id="g260"><path
             id="path262"
             style="fill:#ffffff;fill-opacity:1;fill-rule:nonzero;stroke:none"
             d="m 0,0 c 1.667,-1.734 3.903,-2.69 6.296,-2.69 4.817,0 8.737,3.919 8.737,8.737 0,3.816 -2.445,7.158 -6.083,8.317 -0.272,0.086 -0.446,0.354 -0.414,0.638 0.064,0.583 0.096,1.114 0.096,1.623 0,7.601 -5.706,13.844 -13.271,14.521 -0.224,0.021 -0.417,0.163 -0.503,0.371 -1.333,3.258 -4.328,5.507 -7.817,5.87 -0.326,0.034 -0.565,0.323 -0.536,0.65 0.024,0.27 0.039,0.543 0.039,0.82 0,5.185 -4.219,9.403 -9.403,9.403 -5.135,0 -9.351,-4.178 -9.4,-9.315 -0.003,-0.307 -0.235,-0.562 -0.54,-0.592 -3.864,-0.386 -7.103,-3.034 -8.252,-6.749 -0.061,-0.196 -0.22,-0.349 -0.419,-0.402 -5.314,-1.412 -9.026,-6.236 -9.026,-11.729 0,-1.183 0.175,-2.362 0.519,-3.505 0.055,-0.182 0.02,-0.378 -0.092,-0.53 -0.112,-0.152 -0.29,-0.243 -0.48,-0.243 -5.235,-0.024 -9.493,-4.301 -9.493,-9.535 0,-5.259 4.278,-9.537 9.537,-9.537 3.367,0 6.421,1.731 8.167,4.632 0.106,0.178 0.296,0.287 0.504,0.29 h 0.009 c 0.203,0 0.394,-0.103 0.504,-0.274 1.187,-1.839 3.196,-2.937 5.374,-2.937 1.905,0 3.699,0.843 4.921,2.312 0.135,0.165 0.346,0.244 0.563,0.208 0.21,-0.037 0.386,-0.183 0.46,-0.384 1.027,-2.772 3.698,-4.634 6.647,-4.634 1.971,0 3.807,0.803 5.171,2.261 0.12,0.127 0.272,0.191 0.463,0.189 0.173,-0.007 0.337,-0.09 0.445,-0.225 1.821,-2.291 4.538,-3.605 7.452,-3.605 3.516,0 6.734,1.929 8.445,5.106 0.164,0.222 0.292,0.463 0.38,0.718 0.07,0.198 0.236,0.345 0.438,0.39 0.044,0.01 0.086,0.014 0.129,0.014 C -0.271,0.184 -0.114,0.119 0,0 m -17.786,-3.695 c -1.532,-1.404 -3.486,-2.168 -5.57,-2.168 -3.133,0 -5.996,1.796 -7.394,4.553 -1.402,-1.316 -3.25,-2.055 -5.197,-2.055 -2.287,0 -4.416,1.016 -5.852,2.76 -2.017,-2.816 -5.211,-4.471 -8.706,-4.471 -5.921,0 -10.737,4.816 -10.737,10.736 0,5.633 4.381,10.281 9.915,10.704 -0.245,1.021 -0.368,2.064 -0.368,3.109 0,5.926 3.931,11.144 9.6,12.801 1.317,3.845 4.65,6.613 8.655,7.208 0.327,5.549 4.966,9.978 10.581,9.978 5.846,0 10.602,-4.756 10.602,-10.603 0,-0.117 -0.002,-0.234 -0.006,-0.351 3.565,-0.565 6.603,-2.889 8.089,-6.2 8.01,-0.897 14.006,-7.576 14.006,-15.681 0,-0.41 -0.019,-0.831 -0.057,-1.277 3.883,-1.446 6.457,-5.123 6.457,-9.301 0,-5.48 -4.458,-9.937 -9.936,-9.937 -2.44,0 -4.736,0.872 -6.551,2.473 -0.037,-0.058 -0.077,-0.112 -0.116,-0.162 -1.873,-3.494 -5.496,-5.664 -9.454,-5.664 -3.059,0 -5.925,1.285 -7.961,3.548" /></g><g
           transform="translate(94.8525,26.5625)"
           id="g264"><path
             id="path266"
             style="fill:#ffffff;fill-opacity:1;fill-rule:nonzero;stroke:none"
             d="m 0,0 c 0,-1.654 1.347,-3.001 3.002,-3.001 1.655,0 3.001,1.347 3.001,3.001 0,1.178 -1.646,4.235 -3.001,6.433 C 1.677,4.277 0,1.165 0,0 m -1.199,0 c 0,2.105 3.319,7.298 3.698,7.884 0.22,0.342 0.787,0.341 1.007,0 C 3.884,7.298 7.203,2.105 7.203,0 c 0,-2.316 -1.884,-4.2 -4.201,-4.2 -2.316,0 -4.201,1.884 -4.201,4.2" /></g><g
           transform="translate(102.4404,19.3721)"
           id="g268"><path
             id="path270"
             style="fill:#ffffff;fill-opacity:1;fill-rule:nonzero;stroke:none"
             d="m 0,0 c -0.566,-0.567 -0.879,-1.321 -0.879,-2.122 0,-0.802 0.313,-1.556 0.879,-2.123 1.134,-1.132 3.11,-1.134 4.245,0 0.824,0.824 1.839,4.21 2.426,6.671 C 4.21,1.839 0.824,0.823 0,0 m -0.847,-5.093 c -1.639,1.638 -1.639,4.303 0,5.941 1.488,1.489 7.506,2.814 8.188,2.961 0.2,0.042 0.407,-0.018 0.55,-0.163 C 8.036,3.502 8.096,3.295 8.054,3.096 7.907,2.414 6.582,-3.604 5.093,-5.093 4.274,-5.912 3.199,-6.321 2.124,-6.321 c -1.077,0 -2.153,0.409 -2.971,1.228" /></g><g
           transform="translate(91.4429,3.2744)"
           id="g272"><path
             id="path274"
             style="fill:#ffffff;fill-opacity:1;fill-rule:nonzero;stroke:none"
             d="m 0,0 h 10.601 c 0.33,0 0.599,0.269 0.599,0.6 0,0.331 -0.269,0.599 -0.599,0.599 L 0,1.199 C -0.332,1.199 -0.6,0.931 -0.6,0.6 -0.6,0.269 -0.332,0 0,0" /></g><g
           transform="translate(97.855,3.2744)"
           id="g276"><path
             id="path278"
             style="fill:#ffffff;fill-opacity:1;fill-rule:nonzero;stroke:none"
             d="m 0,0 c 0.331,0 0.6,0.269 0.6,0.6 v 23.667 c 0,0.331 -0.269,0.599 -0.6,0.599 -0.332,0 -0.6,-0.268 -0.6,-0.599 V 0.6 C -0.6,0.269 -0.332,0 0,0" /></g><g
           transform="translate(97.855,9.9414)"
           id="g280"><path
             id="path282"
             style="fill:#ffffff;fill-opacity:1;fill-rule:nonzero;stroke:none"
             d="m 0,0 c 0.153,0 0.306,0.059 0.423,0.176 l 7.35,7.349 c 0.235,0.234 0.235,0.615 0,0.848 -0.234,0.234 -0.613,0.234 -0.847,0 l -7.35,-7.35 C -0.658,0.79 -0.658,0.409 -0.424,0.176 -0.307,0.059 -0.153,0 0,0" /></g><g
           transform="translate(198.8164,3.2744)"
           id="g284"><path
             id="path286"
             style="fill:#ffffff;fill-opacity:1;fill-rule:nonzero;stroke:none"
             d="m 0,0 h 5.834 c 0.331,0 0.6,0.269 0.6,0.6 0,0.331 -0.269,0.599 -0.6,0.599 L 0,1.199 C -0.331,1.199 -0.599,0.931 -0.599,0.6 -0.599,0.269 -0.331,0 0,0" /></g><g
           transform="translate(201.7339,9.5283)"
           id="g288"><path
             id="path290"
             style="fill:#ffffff;fill-opacity:1;fill-rule:nonzero;stroke:none"
             d="m 0,0 c 4.601,0 8.343,3.742 8.343,8.343 0,2.715 -2.842,8.177 -5.226,12.28 C 2.951,20.908 2.583,21.009 2.297,20.84 2.01,20.674 1.913,20.307 2.08,20.02 5.344,14.399 7.143,10.252 7.143,8.343 7.143,4.404 3.938,1.199 0,1.199 c -3.939,0 -7.144,3.205 -7.144,7.144 0,0.894 0.392,2.276 1.163,4.11 0.129,0.305 -0.014,0.657 -0.32,0.785 -0.302,0.13 -0.656,-0.014 -0.785,-0.32 C -7.932,10.909 -8.343,9.412 -8.343,8.343 -8.343,3.742 -4.601,0 0,0" /></g><g
           transform="translate(201.7339,3.2744)"
           id="g292"><path
             id="path294"
             style="fill:#ffffff;fill-opacity:1;fill-rule:nonzero;stroke:none"
             d="m 0,0 c 0.331,0 0.6,0.269 0.6,0.6 v 21.264 c 0,0.331 -0.269,0.6 -0.6,0.6 -0.332,0 -0.6,-0.269 -0.6,-0.6 V 0.6 C -0.6,0.269 -0.332,0 0,0" /></g><g
           transform="translate(202.0132,18.5537)"
           id="g296"><path
             id="path298"
             style="fill:#ffffff;fill-opacity:1;fill-rule:nonzero;stroke:none"
             d="M 0,0 C 0.153,0 0.306,0.059 0.423,0.176 L 3.54,3.292 c 0.234,0.233 0.234,0.614 0,0.848 -0.235,0.234 -0.614,0.234 -0.848,0 L -0.424,1.023 C -0.658,0.79 -0.658,0.409 -0.424,0.176 -0.307,0.059 -0.153,0 0,0" /></g><g
           transform="translate(202.0132,14.3877)"
           id="g300"><path
             id="path302"
             style="fill:#ffffff;fill-opacity:1;fill-rule:nonzero;stroke:none"
             d="M 0,0 C 0.153,0 0.306,0.059 0.423,0.176 L 3.54,3.292 c 0.234,0.233 0.234,0.614 0,0.848 -0.235,0.234 -0.614,0.234 -0.848,0 L -0.424,1.023 C -0.658,0.79 -0.658,0.409 -0.424,0.176 -0.307,0.059 -0.153,0 0,0" /></g><g
           transform="translate(157.7686,3.2744)"
           id="g304"><path
             id="path306"
             style="fill:#ffffff;fill-opacity:1;fill-rule:nonzero;stroke:none"
             d="m 0,0 h 36.5 c 0.331,0 0.6,0.269 0.6,0.6 0,4.652 -1.708,9.119 -4.811,12.578 -0.221,0.246 -0.601,0.268 -0.847,0.046 C 31.196,13.003 31.175,12.623 31.396,12.377 34.167,9.287 35.75,5.339 35.89,1.199 H 0.611 c 0.317,9.456 8.108,17.051 17.639,17.051 3.404,0 6.708,-0.971 9.554,-2.807 0.279,-0.18 0.65,-0.099 0.829,0.179 0.179,0.278 0.1,0.649 -0.179,0.829 -3.038,1.962 -6.568,2.998 -10.204,2.998 C 7.857,19.449 -0.6,10.993 -0.6,0.6 -0.6,0.269 -0.331,0 0,0" /></g><g
           transform="translate(181.1768,3.2744)"
           id="g308"><path
             id="path310"
             style="fill:#ffffff;fill-opacity:1;fill-rule:nonzero;stroke:none"
             d="m 0,0 c 0.331,0 0.6,0.269 0.6,0.6 v 10.683 c 0,0.331 -0.269,0.6 -0.6,0.6 -0.331,0 -0.6,-0.269 -0.6,-0.6 V 0.6 C -0.6,0.269 -0.331,0 0,0" /></g><g
           transform="translate(172.9019,3.2744)"
           id="g312"><path
             id="path314"
             style="fill:#ffffff;fill-opacity:1;fill-rule:nonzero;stroke:none"
             d="m 0,0 c 0.331,0 0.6,0.269 0.6,0.6 v 12.922 c 0,0.332 -0.269,0.6 -0.6,0.6 -0.332,0 -0.6,-0.268 -0.6,-0.6 V 0.6 C -0.6,0.269 -0.332,0 0,0" /></g><g
           transform="translate(172.9019,7.1006)"
           id="g316"><path
             id="path318"
             style="fill:#ffffff;fill-opacity:1;fill-rule:nonzero;stroke:none"
             d="M 0,0 C 0.153,0 0.308,0.059 0.425,0.176 0.658,0.41 0.658,0.79 0.424,1.024 L -2.821,4.269 C -3.056,4.501 -3.436,4.502 -3.67,4.268 -3.904,4.033 -3.904,3.653 -3.669,3.419 L -0.424,0.175 C -0.307,0.059 -0.154,0 0,0" /></g><g
           transform="translate(181.1768,7.1006)"
           id="g320"><path
             id="path322"
             style="fill:#ffffff;fill-opacity:1;fill-rule:nonzero;stroke:none"
             d="m 0,0 h 2.607 c 0.331,0 0.599,0.269 0.599,0.6 0,0.331 -0.268,0.599 -0.599,0.599 L 0,1.199 C -0.331,1.199 -0.6,0.931 -0.6,0.6 -0.6,0.269 -0.331,0 0,0" /></g><g
           transform="translate(82.707,12.0107)"
           id="g324"><path
             id="path326"
             style="fill:#ffffff;fill-opacity:1;fill-rule:nonzero;stroke:none"
             d="M 0,0 C -4.284,0 -7.806,-3.329 -8.114,-7.537 H 8.113 C 7.806,-3.329 4.284,0 0,0 m -9.335,-8.137 c 0,5.149 4.187,9.336 9.335,9.336 5.148,0 9.335,-4.187 9.335,-9.336 0,-0.331 -0.269,-0.599 -0.599,-0.599 H -8.736 c -0.331,0 -0.599,0.268 -0.599,0.599" /></g><g
           transform="translate(82.707,3.2744)"
           id="g328"><path
             id="path330"
             style="fill:#ffffff;fill-opacity:1;fill-rule:nonzero;stroke:none"
             d="M 0,0 C 0.332,0 0.6,0.269 0.6,0.6 V 4.968 C 0.6,5.299 0.332,5.567 0,5.567 -0.331,5.567 -0.6,5.299 -0.6,4.968 V 0.6 C -0.6,0.269 -0.331,0 0,0" /></g><g
           transform="translate(125.8945,14.7266)"
           id="g332"><path
             id="path334"
             style="fill:#ffffff;fill-opacity:1;fill-rule:nonzero;stroke:none"
             d="m 0,0 h 7.648 c 0.331,0 0.6,0.269 0.6,0.6 0,0.331 -0.269,0.599 -0.6,0.599 L 0,1.199 C -0.331,1.199 -0.6,0.931 -0.6,0.6 -0.6,0.269 -0.331,0 0,0" /></g><g
           transform="translate(136.7949,14.8369)"
           id="g336"><path
             id="path338"
             style="fill:#ffffff;fill-opacity:1;fill-rule:nonzero;stroke:none"
             d="m 0,0 c 0.016,0 0.032,0 0.047,0.001 l 3.557,0.27 C 3.783,0.285 3.946,0.379 4.05,0.525 l 4.322,6.162 h 1.346 l 1.476,-0.458 c 0.246,-0.074 0.516,0.013 0.667,0.226 l 0.937,1.323 c 0.162,0.229 0.145,0.538 -0.042,0.747 L 9.069,12.64 c -0.135,0.148 -0.334,0.221 -0.53,0.193 L 5.414,12.396 -1.563,10.952 -13.407,9.973 c -2.914,-0.242 -5.196,-2.722 -5.196,-5.646 0,-1.58 0.851,-3.054 2.219,-3.845 0.287,-0.166 0.655,-0.067 0.82,0.22 0.166,0.286 0.067,0.653 -0.22,0.819 -0.999,0.578 -1.62,1.653 -1.62,2.806 0,2.305 1.8,4.26 4.097,4.45 l 11.915,0.99 7.011,1.447 2.769,0.387 3.154,-3.52 L 11.133,7.504 9.987,7.86 C 9.929,7.878 9.869,7.887 9.809,7.887 H 8.059 C 7.864,7.887 7.68,7.792 7.568,7.632 L 3.231,1.447 -0.044,1.198 C -0.375,1.173 -0.622,0.885 -0.597,0.554 -0.573,0.239 -0.31,0 0,0" /></g><g
           transform="translate(145.415,26.4756)"
           id="g340"><path
             id="path342"
             style="fill:#ffffff;fill-opacity:1;fill-rule:nonzero;stroke:none"
             d="M 0,0 C 0.219,0 0.429,0.12 0.536,0.327 0.687,0.622 0.57,0.983 0.274,1.135 l -3.787,1.939 -2.449,3.139 v 3.2 c 0,0.331 -0.268,0.6 -0.6,0.6 -0.331,0 -0.599,-0.269 -0.599,-0.6 V 6.007 c 0,-0.134 0.044,-0.264 0.127,-0.369 l 2.656,-3.407 c 0.054,-0.068 0.122,-0.125 0.199,-0.165 l 3.907,-2 C -0.184,0.021 -0.092,0 0,0" /></g><g
           transform="translate(141.5098,28.4766)"
           id="g344"><path
             id="path346"
             style="fill:#ffffff;fill-opacity:1;fill-rule:nonzero;stroke:none"
             d="M 0,0 C 0.181,0 0.358,0.081 0.477,0.235 L 1.789,1.954 C 1.87,2.059 1.913,2.187 1.913,2.318 V 4.35 c 0,0.331 -0.269,0.599 -0.6,0.599 -0.332,0 -0.6,-0.268 -0.6,-0.599 V 2.521 L -0.476,0.964 C -0.678,0.7 -0.628,0.324 -0.364,0.123 -0.255,0.04 -0.127,0 0,0" /></g><g
           transform="translate(138.8535,31.8828)"
           id="g348"><path
             id="path350"
             style="fill:#ffffff;fill-opacity:1;fill-rule:nonzero;stroke:none"
             d="M 0,0 C 0.148,0 0.295,0.055 0.41,0.161 L 2.035,1.677 C 2.116,1.753 2.176,1.852 2.204,1.96 L 2.611,3.476 C 2.697,3.796 2.507,4.125 2.187,4.21 1.864,4.299 1.537,4.106 1.452,3.786 L 1.09,2.437 -0.086,1.339 -1.486,2.136 -1.752,3.729 C -1.806,4.058 -2.122,4.276 -2.442,4.223 -2.769,4.168 -2.99,3.859 -2.935,3.532 L -2.623,1.657 C -2.594,1.479 -2.485,1.324 -2.328,1.234 L -0.297,0.078 C -0.204,0.025 -0.102,0 0,0" /></g><g
           transform="translate(142.8228,30.1943)"
           id="g352"><path
             id="path354"
             style="fill:#ffffff;fill-opacity:1;fill-rule:nonzero;stroke:none"
             d="m 0,0 c 0.064,0 0.13,0.011 0.195,0.033 l 2,0.688 C 2.508,0.828 2.675,1.17 2.567,1.483 2.459,1.796 2.119,1.966 1.804,1.855 l -2,-0.687 C -0.509,1.061 -0.675,0.719 -0.567,0.405 -0.482,0.157 -0.25,0 0,0" /></g><g
           transform="translate(143.8228,27.293)"
           id="g356"><path
             id="path358"
             style="fill:#ffffff;fill-opacity:1;fill-rule:nonzero;stroke:none"
             d="m 0,0 c 0.148,0 0.296,0.054 0.412,0.164 l 1.25,1.184 C 1.903,1.575 1.913,1.955 1.685,2.195 1.458,2.438 1.077,2.448 0.837,2.219 L -0.413,1.035 C -0.654,0.808 -0.663,0.428 -0.436,0.187 -0.317,0.062 -0.159,0 0,0" /></g><g
           transform="translate(136.2925,4.6006)"
           id="g360"><path
             id="path362"
             style="fill:#ffffff;fill-opacity:1;fill-rule:nonzero;stroke:none"
             d="M 0,0 C 0.096,0 0.194,0.023 0.285,0.073 0.576,0.23 0.684,0.595 0.526,0.887 l -0.74,1.366 V 5.992 L 0.551,9.43 1.779,12.28 C 1.911,12.585 1.771,12.938 1.465,13.068 1.161,13.197 0.809,13.059 0.677,12.755 L -0.573,9.853 C -0.587,9.818 -0.599,9.782 -0.607,9.746 L -1.399,6.189 C -1.408,6.146 -1.413,6.103 -1.413,6.059 V 2.101 c 0,-0.1 0.024,-0.199 0.072,-0.287 l 0.813,-1.5 C -0.42,0.114 -0.214,0 0,0" /></g><g
           transform="translate(135.4785,6.4443)"
           id="g364"><path
             id="path366"
             style="fill:#ffffff;fill-opacity:1;fill-rule:nonzero;stroke:none"
             d="M 0,0 C 0.061,0 0.123,0.01 0.185,0.029 0.5,0.132 0.673,0.47 0.572,0.785 l -1.514,4.683 -0.571,4.982 c -0.037,0.329 -0.336,0.571 -0.664,0.528 -0.329,-0.038 -0.565,-0.335 -0.527,-0.665 L -2.127,5.271 C -2.123,5.232 -2.114,5.193 -2.102,5.155 L -0.571,0.416 C -0.489,0.162 -0.252,0 0,0" /></g><g
           transform="translate(122.0615,4.3926)"
           id="g368"><path
             id="path370"
             style="fill:#ffffff;fill-opacity:1;fill-rule:nonzero;stroke:none"
             d="m 0,0 c 0.06,0 0.121,0.01 0.182,0.028 0.316,0.101 0.49,0.438 0.391,0.754 L 0.05,2.431 -0.449,7.423 6.203,11.764 c 0.278,0.181 0.356,0.553 0.175,0.831 -0.18,0.275 -0.553,0.354 -0.831,0.175 L -1.411,8.229 C -1.598,8.105 -1.702,7.889 -1.68,7.666 L -1.138,2.249 C -1.134,2.208 -1.126,2.167 -1.113,2.127 L -0.572,0.419 C -0.491,0.164 -0.255,0 0,0" /></g><g
           transform="translate(121.521,6.1006)"
           id="g372"><path
             id="path374"
             style="fill:#ffffff;fill-opacity:1;fill-rule:nonzero;stroke:none"
             d="m 0,0 c 0.078,0 0.156,0.016 0.232,0.048 0.306,0.128 0.449,0.479 0.32,0.785 l -2.597,6.188 1.722,2.366 c 0.195,0.268 0.136,0.643 -0.131,0.839 -0.27,0.195 -0.644,0.134 -0.839,-0.132 L -3.215,7.454 C -3.338,7.284 -3.364,7.062 -3.282,6.868 l 2.729,-6.5 C -0.457,0.139 -0.235,0 0,0" /></g><g
           transform="translate(117.6509,16.4932)"
           id="g376"><path
             id="path378"
             style="fill:#ffffff;fill-opacity:1;fill-rule:nonzero;stroke:none"
             d="M 0,0 C 0.309,0 0.707,0.07 1.08,0.346 1.626,0.753 1.902,1.461 1.782,2.149 1.726,2.477 1.411,2.694 1.089,2.638 0.761,2.581 0.542,2.271 0.601,1.944 0.643,1.697 0.551,1.448 0.364,1.31 0.143,1.146 -0.135,1.207 -0.189,1.222 -0.511,1.303 -0.837,1.112 -0.921,0.792 -1.004,0.472 -0.812,0.144 -0.491,0.06 -0.404,0.037 -0.226,0 0,0" /></g><g
           transform="translate(111.3218,81.5767)"
           id="g380"><path
             id="path382"
             style="fill:#ffffff;fill-opacity:1;fill-rule:nonzero;stroke:none"
             d="m 0,0 c 0,-6.062 4.933,-10.995 10.994,-10.995 6.062,0 10.995,4.933 10.995,10.995 0,6.062 -4.933,10.994 -10.995,10.994 C 4.933,10.994 0,6.062 0,0 m -1.199,0 c 0,6.724 5.47,12.194 12.193,12.194 6.724,0 12.194,-5.47 12.194,-12.194 0,-6.724 -5.47,-12.195 -12.194,-12.195 -6.723,0 -12.193,5.471 -12.193,12.195" /></g><g
           transform="translate(114.2798,81.5767)"
           id="g384"><path
             id="path386"
             style="fill:#ffffff;fill-opacity:1;fill-rule:nonzero;stroke:none"
             d="m 0,0 c 0,-4.432 3.605,-8.036 8.036,-8.036 4.432,0 8.037,3.604 8.037,8.036 0,4.431 -3.605,8.036 -8.037,8.036 C 3.605,8.036 0,4.431 0,0 m -1.199,0 c 0,5.093 4.142,9.236 9.235,9.236 5.093,0 9.236,-4.143 9.236,-9.236 0,-5.093 -4.143,-9.236 -9.236,-9.236 -5.093,0 -9.235,4.143 -9.235,9.236" /></g><g
           transform="translate(122.3154,95.7378)"
           id="g388"><path
             id="path390"
             style="fill:#ffffff;fill-opacity:1;fill-rule:nonzero;stroke:none"
             d="M 0,0 C 0.332,0 0.6,0.269 0.6,0.6 V 6.1 C 0.6,6.432 0.332,6.7 0,6.7 -0.331,6.7 -0.6,6.432 -0.6,6.1 V 0.6 C -0.6,0.269 -0.331,0 0,0" /></g><g
           transform="translate(122.3154,103.9253)"
           id="g392"><path
             id="path394"
             style="fill:#ffffff;fill-opacity:1;fill-rule:nonzero;stroke:none"
             d="m 0,0 c 0.332,0 0.6,0.269 0.6,0.6 v 0.313 c 0,0.331 -0.268,0.6 -0.6,0.6 -0.331,0 -0.6,-0.269 -0.6,-0.6 V 0.6 C -0.6,0.269 -0.331,0 0,0" /></g><g
           transform="translate(129.6953,93.7603)"
           id="g396"><path
             id="path398"
             style="fill:#ffffff;fill-opacity:1;fill-rule:nonzero;stroke:none"
             d="m 0,0 c 0.208,0 0.41,0.107 0.521,0.3 l 2.75,4.763 C 3.437,5.35 3.338,5.717 3.051,5.883 2.763,6.049 2.397,5.95 2.231,5.663 L -0.519,0.9 C -0.685,0.613 -0.585,0.246 -0.298,0.08 -0.204,0.026 -0.102,0 0,0" /></g><g
           transform="translate(133.7891,100.8506)"
           id="g400"><path
             id="path402"
             style="fill:#ffffff;fill-opacity:1;fill-rule:nonzero;stroke:none"
             d="M 0,0 C 0.208,0 0.41,0.107 0.521,0.3 L 0.677,0.571 C 0.843,0.858 0.745,1.226 0.458,1.391 0.169,1.556 -0.198,1.457 -0.362,1.171 L -0.518,0.9 C -0.684,0.613 -0.586,0.246 -0.299,0.08 -0.204,0.026 -0.101,0 0,0" /></g><g
           transform="translate(135.1011,88.3569)"
           id="g404"><path
             id="path406"
             style="fill:#ffffff;fill-opacity:1;fill-rule:nonzero;stroke:none"
             d="m 0,0 c 0.101,0 0.204,0.026 0.298,0.081 l 4.763,2.75 C 5.348,2.996 5.447,3.363 5.281,3.65 5.116,3.938 4.75,4.038 4.462,3.87 L -0.301,1.12 C -0.588,0.954 -0.687,0.587 -0.521,0.3 -0.409,0.108 -0.208,0 0,0" /></g><g
           transform="translate(142.1904,92.4512)"
           id="g408"><path
             id="path410"
             style="fill:#ffffff;fill-opacity:1;fill-rule:nonzero;stroke:none"
             d="m 0,0 c 0.102,0 0.205,0.026 0.299,0.081 l 0.27,0.156 C 0.857,0.402 0.955,0.769 0.79,1.056 0.624,1.343 0.255,1.442 -0.03,1.276 L -0.301,1.119 C -0.588,0.954 -0.686,0.587 -0.521,0.3 -0.409,0.107 -0.208,0 0,0" /></g><g
           transform="translate(137.0771,80.9766)"
           id="g412"><path
             id="path414"
             style="fill:#ffffff;fill-opacity:1;fill-rule:nonzero;stroke:none"
             d="M 0,0 H 5.5 C 5.832,0 6.1,0.268 6.1,0.6 6.1,0.931 5.832,1.2 5.5,1.2 H 0 C -0.331,1.2 -0.6,0.931 -0.6,0.6 -0.6,0.268 -0.331,0 0,0" /></g><g
           transform="translate(145.2646,80.9766)"
           id="g416"><path
             id="path418"
             style="fill:#ffffff;fill-opacity:1;fill-rule:nonzero;stroke:none"
             d="m 0,0 h 0.312 c 0.332,0 0.6,0.268 0.6,0.6 0,0.331 -0.268,0.6 -0.6,0.6 H 0 C -0.331,1.2 -0.6,0.931 -0.6,0.6 -0.6,0.268 -0.331,0 0,0" /></g><g
           transform="translate(139.8613,70.8452)"
           id="g420"><path
             id="path422"
             style="fill:#ffffff;fill-opacity:1;fill-rule:nonzero;stroke:none"
             d="M 0,0 C 0.208,0 0.409,0.108 0.521,0.3 0.687,0.587 0.588,0.954 0.301,1.12 L -4.462,3.87 C -4.75,4.036 -5.115,3.937 -5.281,3.65 -5.447,3.364 -5.348,2.996 -5.061,2.831 l 4.763,-2.75 C -0.204,0.026 -0.102,0 0,0" /></g><g
           transform="translate(142.4595,69.3452)"
           id="g424"><path
             id="path426"
             style="fill:#ffffff;fill-opacity:1;fill-rule:nonzero;stroke:none"
             d="M 0,0 C 0.208,0 0.409,0.108 0.521,0.3 0.686,0.587 0.588,0.954 0.3,1.12 L 0.03,1.276 C -0.256,1.443 -0.624,1.344 -0.79,1.057 -0.955,0.77 -0.857,0.403 -0.57,0.237 L -0.299,0.081 C -0.205,0.026 -0.102,0 0,0" /></g><g
           transform="translate(132.4478,63.4297)"
           id="g428"><path
             id="path430"
             style="fill:#ffffff;fill-opacity:1;fill-rule:nonzero;stroke:none"
             d="M 0,0 C 0.101,0 0.204,0.026 0.299,0.081 0.586,0.246 0.684,0.613 0.518,0.9 l -2.75,4.763 C -2.397,5.949 -2.763,6.048 -3.051,5.882 -3.338,5.717 -3.437,5.35 -3.271,5.063 L -0.521,0.3 C -0.409,0.107 -0.208,0 0,0" /></g><g
           transform="translate(133.9478,60.8315)"
           id="g432"><path
             id="path434"
             style="fill:#ffffff;fill-opacity:1;fill-rule:nonzero;stroke:none"
             d="M 0,0 C 0.101,0 0.204,0.025 0.299,0.08 0.586,0.246 0.684,0.613 0.518,0.9 L 0.362,1.171 C 0.198,1.457 -0.168,1.557 -0.458,1.391 -0.745,1.226 -0.843,0.858 -0.677,0.571 L -0.521,0.3 C -0.411,0.108 -0.208,0 0,0" /></g><g
           transform="translate(122.3154,60.7153)"
           id="g436"><path
             id="path438"
             style="fill:#ffffff;fill-opacity:1;fill-rule:nonzero;stroke:none"
             d="M 0,0 C 0.332,0 0.6,0.269 0.6,0.6 V 6.1 C 0.6,6.432 0.332,6.7 0,6.7 -0.331,6.7 -0.6,6.432 -0.6,6.1 V 0.6 C -0.6,0.269 -0.331,0 0,0" /></g><g
           transform="translate(122.3154,57.7153)"
           id="g440"><path
             id="path442"
             style="fill:#ffffff;fill-opacity:1;fill-rule:nonzero;stroke:none"
             d="m 0,0 c 0.332,0 0.6,0.269 0.6,0.6 v 0.313 c 0,0.331 -0.268,0.6 -0.6,0.6 -0.331,0 -0.6,-0.269 -0.6,-0.6 V 0.6 C -0.6,0.269 -0.331,0 0,0" /></g><g
           transform="translate(112.1841,63.4297)"
           id="g444"><path
             id="path446"
             style="fill:#ffffff;fill-opacity:1;fill-rule:nonzero;stroke:none"
             d="m 0,0 c 0.208,0 0.409,0.107 0.521,0.3 l 2.75,4.763 C 3.436,5.35 3.338,5.717 3.051,5.882 2.763,6.048 2.396,5.949 2.231,5.663 L -0.519,0.9 C -0.685,0.613 -0.586,0.246 -0.299,0.081 -0.204,0.026 -0.102,0 0,0" /></g><g
           transform="translate(110.6841,60.8315)"
           id="g448"><path
             id="path450"
             style="fill:#ffffff;fill-opacity:1;fill-rule:nonzero;stroke:none"
             d="M 0,0 C 0.208,0 0.41,0.108 0.521,0.3 L 0.676,0.571 C 0.843,0.858 0.744,1.226 0.457,1.391 0.167,1.557 -0.198,1.457 -0.362,1.171 L -0.519,0.9 C -0.685,0.613 -0.586,0.246 -0.299,0.08 -0.204,0.025 -0.102,0 0,0" /></g><g
           transform="translate(104.7695,70.8452)"
           id="g452"><path
             id="path454"
             style="fill:#ffffff;fill-opacity:1;fill-rule:nonzero;stroke:none"
             d="m 0,0 c 0.102,0 0.204,0.026 0.299,0.081 l 4.763,2.75 C 5.35,2.996 5.449,3.364 5.282,3.65 5.116,3.937 4.752,4.036 4.463,3.87 L -0.301,1.12 C -0.588,0.954 -0.686,0.587 -0.521,0.3 -0.409,0.108 -0.208,0 0,0" /></g><g
           transform="translate(102.1724,69.3452)"
           id="g456"><path
             id="path458"
             style="fill:#ffffff;fill-opacity:1;fill-rule:nonzero;stroke:none"
             d="m 0,0 c 0.101,0 0.205,0.026 0.299,0.081 l 0.27,0.156 C 0.856,0.403 0.955,0.77 0.789,1.057 0.623,1.344 0.255,1.443 -0.03,1.276 L -0.301,1.12 C -0.588,0.954 -0.687,0.587 -0.521,0.3 -0.409,0.108 -0.208,0 0,0" /></g><g
           transform="translate(102.0552,80.9766)"
           id="g460"><path
             id="path462"
             style="fill:#ffffff;fill-opacity:1;fill-rule:nonzero;stroke:none"
             d="M 0,0 H 5.5 C 5.831,0 6.1,0.268 6.1,0.6 6.1,0.931 5.831,1.2 5.5,1.2 H 0 C -0.332,1.2 -0.6,0.931 -0.6,0.6 -0.6,0.268 -0.332,0 0,0" /></g><g
           transform="translate(99.0552,80.9766)"
           id="g464"><path
             id="path466"
             style="fill:#ffffff;fill-opacity:1;fill-rule:nonzero;stroke:none"
             d="m 0,0 h 0.312 c 0.331,0 0.6,0.268 0.6,0.6 0,0.331 -0.269,0.6 -0.6,0.6 H 0 C -0.332,1.2 -0.6,0.931 -0.6,0.6 -0.6,0.268 -0.332,0 0,0" /></g><g
           transform="translate(109.5317,88.3569)"
           id="g468"><path
             id="path470"
             style="fill:#ffffff;fill-opacity:1;fill-rule:nonzero;stroke:none"
             d="M 0,0 C 0.208,0 0.409,0.108 0.52,0.3 0.687,0.587 0.587,0.954 0.3,1.12 L -4.463,3.87 C -4.752,4.038 -5.117,3.938 -5.283,3.65 -5.448,3.363 -5.35,2.996 -5.063,2.831 l 4.764,-2.75 C -0.205,0.026 -0.102,0 0,0" /></g><g
           transform="translate(102.4404,92.4512)"
           id="g472"><path
             id="path474"
             style="fill:#ffffff;fill-opacity:1;fill-rule:nonzero;stroke:none"
             d="M 0,0 C 0.208,0 0.409,0.107 0.521,0.3 0.687,0.587 0.588,0.954 0.301,1.119 L 0.031,1.276 C -0.255,1.442 -0.624,1.343 -0.789,1.056 -0.955,0.769 -0.856,0.402 -0.569,0.237 L -0.298,0.081 C -0.205,0.026 -0.101,0 0,0" /></g><g
           transform="translate(114.9355,93.7603)"
           id="g476"><path
             id="path478"
             style="fill:#ffffff;fill-opacity:1;fill-rule:nonzero;stroke:none"
             d="m 0,0 c 0.102,0 0.204,0.026 0.299,0.08 0.287,0.166 0.386,0.533 0.22,0.82 l -2.75,4.763 C -2.397,5.95 -2.763,6.049 -3.051,5.883 -3.338,5.717 -3.437,5.35 -3.271,5.063 L -0.521,0.3 C -0.409,0.107 -0.208,0 0,0" /></g><g
           transform="translate(110.8423,100.8506)"
           id="g480"><path
             id="path482"
             style="fill:#ffffff;fill-opacity:1;fill-rule:nonzero;stroke:none"
             d="M 0,0 C 0.101,0 0.204,0.026 0.298,0.08 0.585,0.246 0.685,0.613 0.518,0.9 L 0.362,1.171 C 0.198,1.457 -0.169,1.556 -0.458,1.391 -0.745,1.226 -0.843,0.858 -0.677,0.571 L -0.521,0.3 C -0.411,0.107 -0.208,0 0,0" /></g></g></g></g></svg>