<?xml version="1.0" encoding="UTF-8" standalone="no"?>
<svg
   xmlns:dc="http://purl.org/dc/elements/1.1/"
   xmlns:cc="http://creativecommons.org/ns#"
   xmlns:rdf="http://www.w3.org/1999/02/22-rdf-syntax-ns#"
   xmlns:svg="http://www.w3.org/2000/svg"
   xmlns="http://www.w3.org/2000/svg"
   viewBox="0 0 1333.3333 682.66669"
   height="682.66669"
   width="1333.3333"
   xml:space="preserve"
   id="svg2"
   version="1.1"><metadata
     id="metadata8"><rdf:RDF><cc:Work
         rdf:about=""><dc:format>image/svg+xml</dc:format><dc:type
           rdf:resource="http://purl.org/dc/dcmitype/StillImage" /></cc:Work></rdf:RDF></metadata><defs
     id="defs6"><clipPath
       id="clipPath18"
       clipPathUnits="userSpaceOnUse"><path
         id="path16"
         d="M 0,512 H 1000 V 0 H 0 Z" /></clipPath></defs><g
     transform="matrix(1.3333333,0,0,-1.3333333,0,682.66667)"
     id="g10"><g
       id="g12"><g
         clip-path="url(#clipPath18)"
         id="g14"><g
           transform="translate(102.0391,326.5942)"
           id="g20"><path
             id="path22"
             style="fill:#231815;fill-opacity:1;fill-rule:nonzero;stroke:none"
             d="m 0,0 c -22.318,22.318 -22.318,58.632 0,80.95 10.813,10.812 25.186,16.765 40.476,16.765 15.289,0 29.663,-5.953 40.475,-16.765 C 103.269,58.632 103.269,22.318 80.951,0 70.139,-10.812 55.765,-16.766 40.476,-16.766 25.186,-16.766 10.811,-10.812 0,0 m 138.426,-76.722 c -5.346,-2.046 -11.072,-3.318 -17.07,-3.57 H 108.191 87.785 62.778 v 21.483 c 18.211,4.072 35.54,13.097 49.712,27.269 39.775,39.772 39.775,104.257 0,144.03 -19.886,19.886 -45.95,29.829 -72.014,29.829 -26.065,0 -52.128,-9.943 -72.016,-29.829 -39.773,-39.773 -39.773,-104.258 0,-144.03 14.174,-14.172 31.501,-23.197 49.713,-27.269 V -80.292 H -57.094 V -124.9 h 178.833 v 0.03 c 5.7,0.158 11.262,0.858 16.687,1.94 5.911,1.179 11.617,2.898 17.102,5.082 18.891,7.519 34.976,20.598 46.063,37.328 8.641,13.04 14.273,28.236 15.893,44.604 H 172.39 c -3.46,-18.748 -16.534,-34.133 -33.964,-40.806" /></g><g
           transform="translate(508.9668,265.7031)"
           id="g24"><path
             id="path26"
             style="fill:#231815;fill-opacity:1;fill-rule:nonzero;stroke:none"
             d="m 0,0 h 99.938 c 5.48,0 10.784,0.096 16.235,0.114 v 44.603 c -5.425,-0.03 -10.755,-0.113 -16.235,-0.113 H 0.002 V 68.352 H -44.604 V 44.604 H -160.775 V 0 h 116.171 z" /></g><g
           transform="translate(405.604,122.0127)"
           id="g28"><path
             id="path30"
             style="fill:#231815;fill-opacity:1;fill-rule:nonzero;stroke:none"
             d="m 0,0 c 1.29,-0.081 2.571,-0.196 3.88,-0.196 h 154.363 c 1.311,0 2.592,0.115 3.882,0.196 17.705,1.1 33.445,9.559 44.094,22.435 8.908,10.769 14.271,24.573 14.271,39.609 0,34.32 -27.922,62.241 -62.247,62.241 H 147.224 129.382 103.365 58.759 3.88 -58.364 V 79.682 h 2.583 59.661 125.388 17.956 11.019 c 9.732,0 17.641,-7.911 17.641,-17.638 0,-8.389 -5.897,-15.399 -13.759,-17.175 -1.29,0.078 -2.571,0.196 -3.882,0.196 H 3.88 C 2.571,45.065 1.29,44.947 0,44.869 -17.704,43.77 -33.445,35.311 -44.095,22.435 c -8.908,-10.77 -14.269,-24.576 -14.269,-39.611 0,-34.319 27.921,-62.24 62.244,-62.24 h 11.021 53.64 89.702 62.247 v 44.603 H 217.905 158.243 68.426 14.901 3.88 c -9.73,0 -17.641,7.911 -17.641,17.637 0,8.39 5.898,15.399 13.761,17.176" /></g><g
           transform="translate(758.7451,389.9878)"
           id="g32"><path
             id="path34"
             style="fill:#231815;fill-opacity:1;fill-rule:nonzero;stroke:none"
             d="m 0,0 c -1.288,0.081 -46.01,0.081 -47.3,0 -17.704,-1.1 -33.445,-9.559 -44.095,-22.435 -8.909,-10.769 -14.269,-24.573 -14.269,-39.61 0,-34.32 27.921,-62.241 62.244,-62.241 H 58.366 v 44.604 H -43.42 c -9.73,0 -17.64,7.911 -17.64,17.637 0,8.391 5.897,15.4 13.76,17.176 1.29,-0.079 46.012,-0.079 47.3,0 17.706,1.1 33.446,9.559 44.097,22.434 8.907,10.77 14.269,24.576 14.269,39.61 0,34.32 -27.922,62.241 -62.247,62.241 H -105.664 V 34.812 h 2.584 99.199 c 9.733,0 17.642,-7.911 17.642,-17.637 C 13.761,8.786 7.863,1.777 0,0" /></g><g
           transform="translate(401.0723,393.0806)"
           id="g36"><path
             id="path38"
             style="fill:#231815;fill-opacity:1;fill-rule:nonzero;stroke:none"
             d="m 0,0 c 0,17.49 14.229,31.719 31.72,31.719 15.553,0 28.464,-11.27 31.148,-26.061 C 62.73,3.783 62.582,1.91 62.582,0 v -47.091 h 0.859 43.745 0.858 V 0 c 0,1.91 -0.148,3.783 -0.285,5.658 2.682,14.791 15.594,26.061 31.147,26.061 17.49,0 31.72,-14.229 31.72,-31.719 v -47.091 h 44.603 V 0 c 0,42.152 -34.17,76.323 -76.323,76.323 -20.893,0 -39.811,-8.411 -53.593,-22.013 C 71.531,67.912 52.613,76.323 31.72,76.323 -10.432,76.323 -44.603,42.152 -44.603,0 V -47.091 H 0 Z" /></g><g
           transform="translate(970.2734,265.7041)"
           id="g40"><path
             id="path42"
             style="fill:#231815;fill-opacity:1;fill-rule:nonzero;stroke:none"
             d="M 0,0 C 0,0 -0.096,199.21 -0.112,203.211 H -44.718 C -44.686,199.231 -44.604,0 -44.604,0 Z" /></g><g
           transform="translate(865.3955,265.9473)"
           id="g44"><path
             id="path46"
             style="fill:#231815;fill-opacity:1;fill-rule:nonzero;stroke:none"
             d="m 0,0 h 44.605 c 0,0 -0.017,36.687 -0.039,78.876 0.008,0 0.035,0 0.039,0 v 44.604 h -0.061 c -0.023,41.573 -0.045,78.043 -0.053,79.731 H -0.111 c 0.012,-1.68 0.034,-38.196 0.054,-79.804 -18.207,-0.022 -35.056,-0.04 -35.056,-0.04 V 78.764 c 0,0 16.863,0.02 35.079,0.044 C -0.015,36.647 0,0 0,0" /></g><g
           transform="translate(970.1582,192.6045)"
           id="g48"><path
             id="path50"
             style="fill:#231815;fill-opacity:1;fill-rule:nonzero;stroke:none"
             d="m 0,0 h -206.987 c -23.214,0 -42.995,14.612 -50.837,35.098 -2.055,5.369 -3.331,11.12 -3.584,17.142 v 1.453 h -44.803 v -1.838 h 0.03 c 0.159,-5.724 0.861,-11.309 1.949,-16.757 1.182,-5.939 2.909,-11.669 5.103,-17.178 7.552,-18.973 20.689,-35.128 37.49,-46.264 13.096,-8.678 28.36,-14.335 44.799,-15.962 3.242,-0.321 216.955,-0.492 216.955,-0.492 v 42.536 c 0,0.715 -0.072,1.413 -0.108,2.118 C 0.04,-0.094 0.082,-0.05 0.115,0 Z" /></g></g></g></g></svg>