<?xml version="1.0" encoding="UTF-8" standalone="no"?>
<svg
   xmlns:dc="http://purl.org/dc/elements/1.1/"
   xmlns:cc="http://creativecommons.org/ns#"
   xmlns:rdf="http://www.w3.org/1999/02/22-rdf-syntax-ns#"
   xmlns:svg="http://www.w3.org/2000/svg"
   xmlns="http://www.w3.org/2000/svg"
   viewBox="0 0 682.66669 682.66669"
   height="682.66669"
   width="682.66669"
   xml:space="preserve"
   id="svg2"
   version="1.1"><metadata
     id="metadata8"><rdf:RDF><cc:Work
         rdf:about=""><dc:format>image/svg+xml</dc:format><dc:type
           rdf:resource="http://purl.org/dc/dcmitype/StillImage" /></cc:Work></rdf:RDF></metadata><defs
     id="defs6"><clipPath
       id="clipPath18"
       clipPathUnits="userSpaceOnUse"><path
         id="path16"
         d="M 0,512 H 512 V 0 H 0 Z" /></clipPath></defs><g
     transform="matrix(1.3333333,0,0,-1.3333333,0,682.66667)"
     id="g10"><g
       id="g12"><g
         clip-path="url(#clipPath18)"
         id="g14"><g
           transform="translate(298.8193,332.6733)"
           id="g20"><path
             id="path22"
             style="fill:#e95513;fill-opacity:1;fill-rule:nonzero;stroke:none"
             d="m 0,0 c 22.931,-14.097 2.575,-34.461 2.575,-34.461 l -44.786,-44.786 -27.428,27.426 c -3.455,3.455 -7.989,5.185 -12.52,5.185 -4.533,0 -9.064,-1.73 -12.523,-5.188 -6.914,-6.915 -6.914,-18.126 0.003,-25.043 l 39.947,-39.944 c 1.342,-1.341 2.876,-2.342 4.478,-3.162 4.4,-2.256 9.505,-2.578 14.098,-0.906 2.355,0.857 4.578,2.18 6.468,4.071 0.004,0.005 0.007,0.011 0.012,0.016 l 56.155,56.153 c 0,0 14.334,12.987 17.568,-4.245 0.508,-3.82 0.861,-7.687 0.861,-11.646 0,-48.451 -39.277,-87.727 -87.727,-87.727 -48.451,0 -87.728,39.276 -87.728,87.727 0,48.45 39.277,87.728 87.728,87.728 14.477,0 28.1,-3.569 40.137,-9.78 C -1.848,0.981 -0.919,0.559 -0.177,0.107 -0.116,0.074 -0.061,0.034 0,0" /></g><g
           transform="translate(406.877,341.8105)"
           id="g24"><path
             id="path26"
             style="fill:#e95513;fill-opacity:1;fill-rule:nonzero;stroke:none"
             d="M 0,0 -53.608,1.994 59.761,-109.953 85.23,-84.162 Z" /></g><g
           transform="translate(158.7314,173.5693)"
           id="g28"><path
             id="path30"
             style="fill:#e95513;fill-opacity:1;fill-rule:nonzero;stroke:none"
             d="M 0,0 -113.369,111.95 -138.838,86.155 -53.608,1.993 Z" /></g><g
           transform="translate(252.4507,20.0361)"
           id="g32"><path
             id="path34"
             style="fill:#e95513;fill-opacity:1;fill-rule:nonzero;stroke:none"
             d="M 0,0 84.162,85.229 86.156,138.838 -25.795,25.47 Z" /></g><g
           transform="translate(254.5264,492.25)"
           id="g36"><path
             id="path38"
             style="fill:#e95513;fill-opacity:1;fill-rule:nonzero;stroke:none"
             d="m 0,0 -84.162,-85.23 -1.994,-53.609 111.947,113.373 z" /></g><g
           transform="translate(388.0986,246.9131)"
           id="g40"><path
             id="path42"
             style="fill:#e95513;fill-opacity:1;fill-rule:nonzero;stroke:none"
             d="m 0,0 0.329,-159.328 36.248,0.075 -0.243,119.781 z" /></g><g
           transform="translate(130.2466,265.1943)"
           id="g44"><path
             id="path46"
             style="fill:#e95513;fill-opacity:1;fill-rule:nonzero;stroke:none"
             d="m 0,0 -0.325,159.328 -36.249,-0.072 0.243,-119.785 z" /></g><g
           transform="translate(87.1274,126.792)"
           id="g48"><path
             id="path50"
             style="fill:#e95513;fill-opacity:1;fill-rule:nonzero;stroke:none"
             d="m 0,0 0.075,-36.249 119.785,0.246 39.468,36.331 z" /></g><g
           transform="translate(424.0684,385.3013)"
           id="g52"><path
             id="path54"
             style="fill:#e95513;fill-opacity:1;fill-rule:nonzero;stroke:none"
             d="M 0,0 -0.075,36.249 -119.856,36.002 -159.328,-0.329 Z" /></g></g></g></g></svg>