<?xml version="1.0" encoding="utf-8"?>
<!-- Generator: Adobe Illustrator 25.0.0, SVG Export Plug-In . SVG Version: 6.00 Build 0)  -->
<svg version="1.1" id="레이어_1" xmlns="http://www.w3.org/2000/svg" xmlns:xlink="http://www.w3.org/1999/xlink" x="0px"
	 y="0px" viewBox="0 0 1217 408" style="enable-background:new 0 0 1217 408;" xml:space="preserve">
<style type="text/css">
	.st0{fill:#FFFFFF;}
</style>
<g>
	<g>
		<path class="st0" d="M614.24,236.56c-4.42,1.69-9.14,2.74-14.1,2.95h-10.87h-16.85h-20.65v-17.74
			c15.04-3.36,29.35-10.82,41.06-22.52c32.85-32.85,32.85-86.11,0-118.96c-16.42-16.42-37.95-24.64-59.48-24.64
			c-21.53,0-43.05,8.21-59.48,24.64c-32.85,32.85-32.85,86.11,0,118.96c11.71,11.71,26.02,19.16,41.06,22.52v17.74l-62.16,0v36.84
			l147.7,0v-0.03c4.71-0.13,9.3-0.71,13.78-1.6c4.88-0.97,9.6-2.39,14.13-4.2c15.6-6.21,28.89-17.01,38.04-30.83
			c7.14-10.77,11.79-23.32,13.13-36.84h-37.24C639.43,218.34,628.63,231.05,614.24,236.56z M499.91,173.19
			c-18.43-18.43-18.43-48.43,0-66.86c8.93-8.93,20.8-13.85,33.43-13.85c12.63,0,24.5,4.92,33.43,13.85
			c18.43,18.43,18.43,48.43,0,66.86c-8.93,8.93-20.8,13.85-33.43,13.85C520.71,187.04,508.84,182.12,499.91,173.19z"/>
		<path class="st0" d="M836,223.48h82.54c4.53,0,8.91-0.08,13.41-0.09v-36.84c-4.48,0.03-8.88,0.09-13.41,0.09H836v-19.61h-36.84
			v19.61h-95.95v36.84h95.95H836z"/>
		<path class="st0" d="M750.63,342.16c1.07,0.07,2.12,0.16,3.21,0.16h127.49c1.08,0,2.14-0.1,3.21-0.16
			c14.62-0.91,27.62-7.89,36.42-18.53c7.36-8.89,11.79-20.3,11.79-32.71c0-28.35-23.06-51.41-51.41-51.41h-9.1h-14.74H836h-36.84
			h-45.33h-51.41v36.84h2.13h49.28h103.56h14.83h9.1c8.04,0,14.57,6.53,14.57,14.57c0,6.93-4.87,12.72-11.36,14.19
			c-1.07-0.06-2.12-0.16-3.21-0.16H753.83c-1.08,0-2.14,0.1-3.21,0.16c-14.62,0.91-27.62,7.89-36.42,18.53
			c-7.36,8.9-11.79,20.3-11.79,32.71c0,28.35,23.06,51.41,51.41,51.41h9.1h44.3h74.09h51.41v-36.84h-2.13h-49.28h-74.18h-44.21h-9.1
			c-8.04,0-14.57-6.53-14.57-14.57C739.26,349.42,744.14,343.63,750.63,342.16z"/>
		<path class="st0" d="M1042.3,120.83c-1.06-0.07-38-0.07-39.07,0c-14.62,0.91-27.62,7.89-36.42,18.53
			c-7.36,8.89-11.79,20.3-11.79,32.71c0,28.35,23.06,51.41,51.41,51.41h84.07v-36.84h-84.07c-8.04,0-14.57-6.53-14.57-14.57
			c0-6.93,4.87-12.72,11.36-14.19c1.07,0.07,38,0.07,39.07,0c14.62-0.91,27.62-7.89,36.42-18.53c7.36-8.89,11.79-20.3,11.79-32.71
			c0-28.35-23.06-51.41-51.41-51.41h-84.07v36.84h2.13h81.93c8.04,0,14.57,6.53,14.57,14.57
			C1053.66,113.58,1048.79,119.37,1042.3,120.83z"/>
		<path class="st0" d="M746.89,118.28c0-14.45,11.75-26.2,26.2-26.2c12.85,0,23.51,9.31,25.73,21.52c-0.11,1.55-0.24,3.1-0.24,4.67
			v38.89h0.71h36.13h0.71v-38.89c0-1.58-0.12-3.12-0.24-4.67c2.22-12.22,12.88-21.52,25.73-21.52c14.45,0,26.2,11.75,26.2,26.2
			v38.89h36.84v-38.89c0-34.81-28.22-63.04-63.04-63.04c-17.26,0-32.88,6.95-44.26,18.18c-11.38-11.23-27.01-18.18-44.26-18.18
			c-34.81,0-63.04,28.22-63.04,63.04v38.89h36.84V118.28z"/>
		<path class="st0" d="M1217,223.48c0,0-0.08-164.53-0.09-167.84h-36.84c0.03,3.29,0.09,167.84,0.09,167.84H1217z"/>
		<path class="st0" d="M1130.38,223.28h36.84c0,0-0.01-30.3-0.03-65.15c0.01,0,0.03,0,0.03,0V121.3c-0.01,0-0.04,0-0.05,0
			c-0.02-34.34-0.04-64.46-0.04-65.85h-36.84c0.01,1.39,0.03,31.55,0.05,65.91c-15.04,0.02-28.95,0.03-28.95,0.03v36.84
			c0,0,13.93-0.02,28.97-0.04C1130.37,193.01,1130.38,223.28,1130.38,223.28z"/>
		<path class="st0" d="M1216.9,283.86h-170.95c-19.17,0-35.51-12.07-41.99-28.99c-1.7-4.43-2.75-9.18-2.96-14.16v-1.2h-37v1.52h0.02
			c0.13,4.73,0.71,9.34,1.61,13.84c0.98,4.9,2.4,9.64,4.21,14.19c6.24,15.67,17.09,29.01,30.96,38.21
			c10.82,7.17,23.42,11.84,37,13.18c2.68,0.27,179.19,0.41,179.19,0.41v-35.13c0-0.59-0.06-1.17-0.09-1.75
			c0.03-0.04,0.06-0.08,0.09-0.12H1216.9z"/>
	</g>
	<g>
		<path class="st0" d="M230.37,132.05c18.94,11.64,2.13,28.46,2.13,28.46l-36.99,36.99l-22.65-22.65c-2.85-2.85-6.6-4.28-10.34-4.28
			c-3.74,0-7.49,1.43-10.34,4.28c-5.71,5.71-5.71,14.97,0,20.68l32.99,32.99c1.11,1.11,2.38,1.93,3.7,2.61
			c3.63,1.86,7.85,2.13,11.64,0.75c1.95-0.71,3.78-1.8,5.34-3.36c0,0,0.01-0.01,0.01-0.01l46.38-46.38c0,0,11.84-10.73,14.51,3.51
			c0.42,3.15,0.71,6.35,0.71,9.62c0,40.02-32.44,72.46-72.46,72.46s-72.46-32.44-72.46-72.46S154.99,122.8,195,122.8
			c11.96,0,23.21,2.95,33.15,8.08c0.69,0.36,1.46,0.71,2.07,1.08C230.27,131.99,230.32,132.02,230.37,132.05z"/>
		<polygon class="st0" points="319.62,124.5 275.34,122.85 368.97,215.31 390.01,194.01 		"/>
		<polygon class="st0" points="114.67,263.45 21.04,170.99 0,192.3 70.39,261.81 		"/>
		<polygon class="st0" points="192.07,390.26 261.58,319.87 263.23,275.59 170.77,369.22 		"/>
		<polygon class="st0" points="193.79,0.25 124.28,70.64 122.63,114.92 215.09,21.28 		"/>
		<polygon class="st0" points="304.11,202.88 304.38,334.47 334.32,334.41 334.12,235.48 		"/>
		<polygon class="st0" points="91.14,187.78 90.87,56.19 60.94,56.25 61.14,155.18 		"/>
		<polygon class="st0" points="55.53,302.09 55.59,332.03 154.53,331.82 187.12,301.82 		"/>
		<polygon class="st0" points="333.82,88.58 333.75,58.64 234.82,58.85 202.22,88.85 		"/>
	</g>
</g>
</svg>
